<svg xmlns="http://www.w3.org/2000/svg" xmlns:xlink="http://www.w3.org/1999/xlink" width="200" zoomAndPan="magnify" viewBox="0 0 150 60" height="80" preserveAspectRatio="xMidYMid meet" version="1.0"><defs><g/><clipPath id="938f3f12e7"><path d="M 4 10 L 46 10 L 46 48 L 4 48 Z M 4 10 " clip-rule="nonzero"/></clipPath><clipPath id="dfcded3ff7"><path d="M 0.753906 39.523438 L 36.71875 5.511719 L 48.570312 18.046875 L 12.605469 52.054688 Z M 0.753906 39.523438 " clip-rule="nonzero"/></clipPath><clipPath id="e1aa65be3d"><path d="M 0.753906 39.523438 L 36.71875 5.511719 L 48.570312 18.046875 L 12.605469 52.054688 Z M 0.753906 39.523438 " clip-rule="nonzero"/></clipPath></defs><g fill="#0c2d57" fill-opacity="1"><g transform="translate(8.703829, 29.368787)"><g><path d="M 0.515625 -17.109375 L 5.140625 -17.109375 L 5.140625 -16.9375 C 4.640625 -16.9375 4.28125 -16.785156 4.0625 -16.484375 C 3.84375 -16.191406 3.703125 -15.710938 3.640625 -15.046875 C 3.585938 -14.378906 3.5625 -13.484375 3.5625 -12.359375 L 3.5625 -0.171875 L 5.734375 -0.171875 C 6.003906 -0.171875 6.359375 -0.175781 6.796875 -0.1875 C 7.234375 -0.207031 7.707031 -0.242188 8.21875 -0.296875 C 8.738281 -0.359375 9.25 -0.445312 9.75 -0.5625 C 10.257812 -0.6875 10.726562 -0.84375 11.15625 -1.03125 C 11.59375 -1.226562 11.9375 -1.472656 12.1875 -1.765625 C 12.445312 -2.054688 12.578125 -2.410156 12.578125 -2.828125 L 12.75 -2.828125 L 12.75 0 L 0.515625 0 L 0.515625 -0.171875 C 1.003906 -0.171875 1.359375 -0.316406 1.578125 -0.609375 C 1.804688 -0.910156 1.945312 -1.394531 2 -2.0625 C 2.0625 -2.738281 2.09375 -3.632812 2.09375 -4.75 L 2.09375 -12.359375 C 2.09375 -13.484375 2.0625 -14.378906 2 -15.046875 C 1.945312 -15.710938 1.804688 -16.191406 1.578125 -16.484375 C 1.359375 -16.785156 1.003906 -16.9375 0.515625 -16.9375 Z M 0.515625 -17.109375 "/></g></g></g><g fill="#0c2d57" fill-opacity="1"><g transform="translate(28.901335, 46.755352)"><g><path d="M 0.515625 -16.9375 L 0.515625 -17.109375 L 2.5625 -17.109375 C 3.1875 -17.109375 3.757812 -17.132812 4.28125 -17.1875 C 4.800781 -17.25 5.328125 -17.304688 5.859375 -17.359375 C 6.390625 -17.421875 6.984375 -17.453125 7.640625 -17.453125 C 8.867188 -17.453125 9.90625 -17.21875 10.75 -16.75 C 11.59375 -16.28125 12.234375 -15.644531 12.671875 -14.84375 C 13.109375 -14.039062 13.328125 -13.128906 13.328125 -12.109375 C 13.328125 -11.410156 13.203125 -10.738281 12.953125 -10.09375 C 12.703125 -9.457031 12.328125 -8.882812 11.828125 -8.375 C 11.335938 -7.863281 10.722656 -7.457031 9.984375 -7.15625 C 9.253906 -6.863281 8.421875 -6.71875 7.484375 -6.71875 C 6.972656 -6.71875 6.460938 -6.765625 5.953125 -6.859375 C 5.441406 -6.953125 4.972656 -7.0625 4.546875 -7.1875 C 4.128906 -7.3125 3.796875 -7.425781 3.546875 -7.53125 L 3.546875 -4.75 C 3.546875 -3.632812 3.570312 -2.738281 3.625 -2.0625 C 3.6875 -1.394531 3.828125 -0.910156 4.046875 -0.609375 C 4.265625 -0.316406 4.617188 -0.171875 5.109375 -0.171875 L 5.109375 0 L 0.515625 0 L 0.515625 -0.171875 C 1.003906 -0.171875 1.359375 -0.316406 1.578125 -0.609375 C 1.804688 -0.910156 1.945312 -1.394531 2 -2.0625 C 2.0625 -2.738281 2.09375 -3.632812 2.09375 -4.75 L 2.09375 -12.359375 C 2.09375 -13.484375 2.0625 -14.378906 2 -15.046875 C 1.945312 -15.710938 1.804688 -16.191406 1.578125 -16.484375 C 1.359375 -16.785156 1.003906 -16.9375 0.515625 -16.9375 Z M 3.546875 -7.703125 C 3.972656 -7.515625 4.5 -7.359375 5.125 -7.234375 C 5.75 -7.117188 6.429688 -7.0625 7.171875 -7.0625 C 8.023438 -7.0625 8.75 -7.222656 9.34375 -7.546875 C 9.9375 -7.878906 10.414062 -8.300781 10.78125 -8.8125 C 11.15625 -9.320312 11.425781 -9.867188 11.59375 -10.453125 C 11.769531 -11.035156 11.859375 -11.582031 11.859375 -12.09375 C 11.859375 -13.132812 11.644531 -14.035156 11.21875 -14.796875 C 10.800781 -15.566406 10.203125 -16.160156 9.421875 -16.578125 C 8.648438 -17.003906 7.734375 -17.21875 6.671875 -17.21875 C 6.046875 -17.21875 5.5 -17.171875 5.03125 -17.078125 C 4.5625 -16.992188 4.066406 -16.859375 3.546875 -16.671875 Z M 3.546875 -7.703125 "/></g></g></g><path stroke-linecap="butt" transform="matrix(0, -0.75, 0.75, 0, 25.088612, 47.377954)" fill="none" stroke-linejoin="miter" d="M -0.00127017 0.501642 L 46.363315 0.501642 " stroke="#c19b29" stroke-width="1" stroke-opacity="1" stroke-miterlimit="4"/><g fill="#0c2d57" fill-opacity="1"><g transform="translate(57.053287, 18.833426)"><g><path d="M 1.328125 -3.078125 L 2.765625 -3.078125 C 3.117188 -3.078125 3.414062 -3.195312 3.65625 -3.4375 C 3.882812 -3.6875 4 -3.992188 4 -4.359375 C 4 -4.722656 3.890625 -5.019531 3.671875 -5.25 C 3.441406 -5.476562 3.140625 -5.59375 2.765625 -5.59375 L 1.328125 -5.59375 Z M 4.640625 -4.328125 C 4.640625 -3.785156 4.445312 -3.335938 4.0625 -2.984375 C 3.6875 -2.628906 3.222656 -2.453125 2.671875 -2.453125 L 1.328125 -2.453125 L 1.328125 0 L 0.6875 0 L 0.6875 -6.203125 L 2.671875 -6.203125 C 3.222656 -6.203125 3.6875 -6.03125 4.0625 -5.6875 C 4.445312 -5.332031 4.640625 -4.878906 4.640625 -4.328125 Z M 4.640625 -4.328125 "/></g></g></g><g fill="#0c2d57" fill-opacity="1"><g transform="translate(62.923973, 18.833426)"><g><path d="M 1.265625 -0.578125 C 1.421875 -0.460938 1.628906 -0.40625 1.890625 -0.40625 C 2.472656 -0.40625 2.765625 -0.625 2.765625 -1.0625 C 2.765625 -1.320312 2.554688 -1.519531 2.140625 -1.65625 C 1.960938 -1.71875 1.769531 -1.769531 1.5625 -1.8125 C 1.363281 -1.863281 1.175781 -1.925781 1 -2 C 0.789062 -2.101562 0.632812 -2.226562 0.53125 -2.375 C 0.425781 -2.519531 0.375 -2.691406 0.375 -2.890625 C 0.375 -3.296875 0.515625 -3.597656 0.796875 -3.796875 C 1.078125 -4.003906 1.410156 -4.109375 1.796875 -4.109375 C 2.179688 -4.109375 2.503906 -4.03125 2.765625 -3.875 C 3.015625 -3.707031 3.1875 -3.421875 3.28125 -3.015625 L 2.59375 -3.015625 C 2.519531 -3.242188 2.414062 -3.394531 2.28125 -3.46875 C 2.144531 -3.539062 1.976562 -3.578125 1.78125 -3.578125 C 1.582031 -3.578125 1.410156 -3.535156 1.265625 -3.453125 C 1.117188 -3.359375 1.046875 -3.222656 1.046875 -3.046875 C 1.046875 -2.867188 1.109375 -2.734375 1.234375 -2.640625 C 1.347656 -2.566406 1.492188 -2.5 1.671875 -2.4375 C 1.847656 -2.382812 2.039062 -2.335938 2.25 -2.296875 C 2.445312 -2.242188 2.632812 -2.175781 2.8125 -2.09375 C 3.226562 -1.894531 3.4375 -1.582031 3.4375 -1.15625 C 3.4375 -0.71875 3.28125 -0.394531 2.96875 -0.1875 C 2.8125 -0.0820312 2.640625 -0.00390625 2.453125 0.046875 C 2.273438 0.0976562 2.078125 0.125 1.859375 0.125 C 0.921875 0.125 0.382812 -0.289062 0.25 -1.125 L 0.921875 -1.125 C 0.984375 -0.863281 1.097656 -0.679688 1.265625 -0.578125 Z M 1.265625 -0.578125 "/></g></g></g><g fill="#0c2d57" fill-opacity="1"><g transform="translate(67.637037, 18.833426)"><g><path d="M 1.328125 -5.40625 C 1.410156 -5.320312 1.453125 -5.226562 1.453125 -5.125 C 1.453125 -5.007812 1.410156 -4.910156 1.328125 -4.828125 C 1.253906 -4.742188 1.160156 -4.703125 1.046875 -4.703125 C 0.929688 -4.703125 0.832031 -4.742188 0.75 -4.828125 C 0.675781 -4.910156 0.640625 -5.007812 0.640625 -5.125 C 0.640625 -5.226562 0.675781 -5.320312 0.75 -5.40625 C 0.832031 -5.476562 0.929688 -5.515625 1.046875 -5.515625 C 1.160156 -5.515625 1.253906 -5.476562 1.328125 -5.40625 Z M 1.375 0 L 0.734375 0 L 0.734375 -4.015625 L 1.375 -4.015625 Z M 1.375 0 "/></g></g></g><g fill="#0c2d57" fill-opacity="1"><g transform="translate(70.773189, 18.833426)"><g><path d="M 4.4375 -2.578125 L 3.734375 -2.578125 C 3.628906 -2.828125 3.460938 -3.03125 3.234375 -3.1875 C 3.003906 -3.351562 2.769531 -3.4375 2.53125 -3.4375 C 2.289062 -3.4375 2.085938 -3.398438 1.921875 -3.328125 C 1.742188 -3.242188 1.597656 -3.140625 1.484375 -3.015625 C 1.203125 -2.722656 1.0625 -2.382812 1.0625 -2 C 1.0625 -1.613281 1.203125 -1.28125 1.484375 -1 C 1.742188 -0.71875 2.070312 -0.578125 2.46875 -0.578125 C 2.71875 -0.578125 2.953125 -0.644531 3.171875 -0.78125 C 3.390625 -0.90625 3.554688 -1.082031 3.671875 -1.3125 L 4.390625 -1.3125 C 4.171875 -0.664062 3.738281 -0.234375 3.09375 -0.015625 C 2.894531 0.0546875 2.664062 0.09375 2.40625 0.09375 C 2.15625 0.09375 1.90625 0.0351562 1.65625 -0.078125 C 1.40625 -0.191406 1.1875 -0.34375 1 -0.53125 C 0.601562 -0.945312 0.40625 -1.4375 0.40625 -2 C 0.40625 -2.570312 0.601562 -3.066406 1 -3.484375 C 1.40625 -3.890625 1.894531 -4.09375 2.46875 -4.09375 C 2.925781 -4.09375 3.34375 -3.953125 3.71875 -3.671875 C 4.070312 -3.390625 4.3125 -3.023438 4.4375 -2.578125 Z M 4.4375 -2.578125 "/></g></g></g><g fill="#0c2d57" fill-opacity="1"><g transform="translate(76.570952, 18.833426)"><g><path d="M 3.96875 -2.03125 C 3.96875 -2.425781 3.828125 -2.769531 3.546875 -3.0625 C 3.253906 -3.34375 2.910156 -3.484375 2.515625 -3.484375 C 2.109375 -3.484375 1.765625 -3.34375 1.484375 -3.0625 C 1.191406 -2.769531 1.046875 -2.425781 1.046875 -2.03125 C 1.046875 -1.632812 1.191406 -1.289062 1.484375 -1 C 1.765625 -0.71875 2.109375 -0.578125 2.515625 -0.578125 C 2.910156 -0.578125 3.253906 -0.71875 3.546875 -1 C 3.828125 -1.289062 3.96875 -1.632812 3.96875 -2.03125 Z M 4.609375 -2.03125 C 4.609375 -1.445312 4.40625 -0.953125 4 -0.546875 C 3.570312 -0.140625 3.078125 0.0625 2.515625 0.0625 C 1.941406 0.0625 1.445312 -0.140625 1.03125 -0.546875 C 0.613281 -0.953125 0.40625 -1.445312 0.40625 -2.03125 C 0.40625 -2.601562 0.613281 -3.097656 1.03125 -3.515625 C 1.4375 -3.921875 1.929688 -4.125 2.515625 -4.125 C 3.085938 -4.125 3.582031 -3.921875 4 -3.515625 C 4.40625 -3.097656 4.609375 -2.601562 4.609375 -2.03125 Z M 3.8125 -6.21875 L 2.8125 -4.90625 L 2.296875 -4.90625 L 3.03125 -6.21875 Z M 3.8125 -6.21875 "/></g></g></g><g fill="#0c2d57" fill-opacity="1"><g transform="translate(82.633056, 18.833426)"><g><path d="M 1.328125 0 L 0.6875 0 L 0.6875 -6.84375 L 1.328125 -6.84375 Z M 1.328125 0 "/></g></g></g><g fill="#0c2d57" fill-opacity="1"><g transform="translate(85.687172, 18.833426)"><g><path d="M 3.96875 -2.03125 C 3.96875 -2.425781 3.828125 -2.769531 3.546875 -3.0625 C 3.253906 -3.34375 2.910156 -3.484375 2.515625 -3.484375 C 2.109375 -3.484375 1.765625 -3.34375 1.484375 -3.0625 C 1.191406 -2.769531 1.046875 -2.425781 1.046875 -2.03125 C 1.046875 -1.632812 1.191406 -1.289062 1.484375 -1 C 1.765625 -0.71875 2.109375 -0.578125 2.515625 -0.578125 C 2.910156 -0.578125 3.253906 -0.71875 3.546875 -1 C 3.828125 -1.289062 3.96875 -1.632812 3.96875 -2.03125 Z M 4.609375 -2.03125 C 4.609375 -1.445312 4.40625 -0.953125 4 -0.546875 C 3.570312 -0.140625 3.078125 0.0625 2.515625 0.0625 C 1.941406 0.0625 1.445312 -0.140625 1.03125 -0.546875 C 0.613281 -0.953125 0.40625 -1.445312 0.40625 -2.03125 C 0.40625 -2.601562 0.613281 -3.097656 1.03125 -3.515625 C 1.4375 -3.921875 1.929688 -4.125 2.515625 -4.125 C 3.085938 -4.125 3.582031 -3.921875 4 -3.515625 C 4.40625 -3.097656 4.609375 -2.601562 4.609375 -2.03125 Z M 4.609375 -2.03125 "/></g></g></g><g fill="#0c2d57" fill-opacity="1"><g transform="translate(91.749276, 18.833426)"><g><path d="M 3.9375 -2 C 3.9375 -2.394531 3.800781 -2.738281 3.53125 -3.03125 C 3.257812 -3.320312 2.921875 -3.46875 2.515625 -3.46875 C 2.128906 -3.46875 1.796875 -3.320312 1.515625 -3.03125 C 1.242188 -2.738281 1.109375 -2.394531 1.109375 -2 C 1.109375 -1.613281 1.242188 -1.273438 1.515625 -0.984375 C 1.796875 -0.691406 2.128906 -0.546875 2.515625 -0.546875 C 2.921875 -0.546875 3.257812 -0.691406 3.53125 -0.984375 C 3.800781 -1.273438 3.9375 -1.613281 3.9375 -2 Z M 1.078125 0.546875 C 1.140625 0.796875 1.273438 1.019531 1.484375 1.21875 C 1.753906 1.5 2.085938 1.640625 2.484375 1.640625 C 2.878906 1.640625 3.222656 1.5 3.515625 1.21875 C 3.796875 0.9375 3.9375 0.597656 3.9375 0.203125 L 3.9375 -0.671875 C 3.90625 -0.628906 3.867188 -0.585938 3.828125 -0.546875 C 3.441406 -0.117188 2.972656 0.09375 2.421875 0.09375 C 1.867188 0.09375 1.398438 -0.117188 1.015625 -0.546875 C 0.648438 -0.960938 0.46875 -1.445312 0.46875 -2 C 0.46875 -2.5625 0.648438 -3.050781 1.015625 -3.46875 C 1.398438 -3.894531 1.867188 -4.109375 2.421875 -4.109375 C 2.960938 -4.109375 3.429688 -3.894531 3.828125 -3.46875 C 3.867188 -3.425781 3.90625 -3.382812 3.9375 -3.34375 L 3.9375 -4.015625 L 4.578125 -4.015625 L 4.578125 0.203125 C 4.578125 0.773438 4.367188 1.265625 3.953125 1.671875 C 3.546875 2.078125 3.054688 2.28125 2.484375 2.28125 C 1.921875 2.28125 1.429688 2.078125 1.015625 1.671875 C 0.691406 1.347656 0.5 0.972656 0.4375 0.546875 Z M 1.078125 0.546875 "/></g></g></g><g fill="#0c2d57" fill-opacity="1"><g transform="translate(98.048371, 18.833426)"><g><path d="M 3.875 -2 C 3.875 -2.394531 3.742188 -2.738281 3.484375 -3.03125 C 3.203125 -3.320312 2.863281 -3.46875 2.46875 -3.46875 C 2.0625 -3.46875 1.722656 -3.320312 1.453125 -3.03125 C 1.179688 -2.738281 1.046875 -2.394531 1.046875 -2 C 1.046875 -1.613281 1.179688 -1.273438 1.453125 -0.984375 C 1.722656 -0.691406 2.0625 -0.546875 2.46875 -0.546875 C 2.863281 -0.546875 3.203125 -0.691406 3.484375 -0.984375 C 3.742188 -1.273438 3.875 -1.613281 3.875 -2 Z M 4.515625 0 L 3.875 0 L 3.875 -0.6875 C 3.84375 -0.632812 3.804688 -0.585938 3.765625 -0.546875 C 3.378906 -0.117188 2.910156 0.09375 2.359375 0.09375 C 1.804688 0.09375 1.34375 -0.117188 0.96875 -0.546875 C 0.59375 -0.960938 0.40625 -1.445312 0.40625 -2 C 0.40625 -2.5625 0.59375 -3.050781 0.96875 -3.46875 C 1.34375 -3.894531 1.804688 -4.109375 2.359375 -4.109375 C 2.910156 -4.109375 3.378906 -3.894531 3.765625 -3.46875 C 3.804688 -3.425781 3.84375 -3.378906 3.875 -3.328125 L 3.875 -4.015625 L 4.515625 -4.015625 Z M 4.515625 0 "/></g></g></g><g fill="#0c2d57" fill-opacity="1"><g transform="translate(104.292775, 18.833426)"><g/></g></g><g fill="#0c2d57" fill-opacity="1"><g transform="translate(107.80265, 18.833426)"><g><path d="M 6.375 -1.890625 C 6.144531 -1.296875 5.769531 -0.820312 5.25 -0.46875 C 4.71875 -0.09375 4.132812 0.09375 3.5 0.09375 C 2.644531 0.09375 1.914062 -0.222656 1.3125 -0.859375 C 0.707031 -1.472656 0.40625 -2.21875 0.40625 -3.09375 C 0.40625 -3.519531 0.484375 -3.929688 0.640625 -4.328125 C 0.804688 -4.710938 1.03125 -5.050781 1.3125 -5.34375 C 1.914062 -5.96875 2.644531 -6.28125 3.5 -6.28125 C 4.132812 -6.28125 4.710938 -6.101562 5.234375 -5.75 C 5.753906 -5.382812 6.132812 -4.90625 6.375 -4.3125 L 5.671875 -4.3125 C 5.335938 -4.925781 4.835938 -5.332031 4.171875 -5.53125 C 3.953125 -5.59375 3.695312 -5.625 3.40625 -5.625 C 3.125 -5.625 2.832031 -5.554688 2.53125 -5.421875 C 2.238281 -5.285156 1.984375 -5.101562 1.765625 -4.875 C 1.285156 -4.382812 1.046875 -3.789062 1.046875 -3.09375 C 1.046875 -2.40625 1.285156 -1.816406 1.765625 -1.328125 C 2.242188 -0.816406 2.820312 -0.5625 3.5 -0.5625 C 3.96875 -0.5625 4.394531 -0.6875 4.78125 -0.9375 C 5.164062 -1.175781 5.460938 -1.492188 5.671875 -1.890625 Z M 6.375 -1.890625 "/></g></g></g><g fill="#0c2d57" fill-opacity="1"><g transform="translate(115.496357, 18.833426)"><g><path d="M 1.328125 0 L 0.6875 0 L 0.6875 -6.84375 L 1.328125 -6.84375 Z M 1.328125 0 "/></g></g></g><g fill="#0c2d57" fill-opacity="1"><g transform="translate(118.550474, 18.833426)"><g><path d="M 1.375 0 L 0.734375 0 L 0.734375 -4.015625 L 1.375 -4.015625 Z M 2.421875 -6.21875 L 1.421875 -4.90625 L 0.90625 -4.90625 L 1.640625 -6.21875 Z M 2.421875 -6.21875 "/></g></g></g><g fill="#0c2d57" fill-opacity="1"><g transform="translate(121.686626, 18.833426)"><g><path d="M 3.453125 0 L 3.453125 -2.515625 C 3.453125 -2.773438 3.394531 -3 3.28125 -3.1875 C 3.164062 -3.363281 2.96875 -3.453125 2.6875 -3.453125 C 2.414062 -3.453125 2.195312 -3.398438 2.03125 -3.296875 C 1.851562 -3.191406 1.710938 -3.0625 1.609375 -2.90625 C 1.421875 -2.601562 1.328125 -2.191406 1.328125 -1.671875 L 1.328125 0 L 0.6875 0 L 0.6875 -4.015625 L 1.328125 -4.015625 L 1.328125 -3.328125 C 1.460938 -3.546875 1.628906 -3.726562 1.828125 -3.875 C 2.046875 -4.019531 2.300781 -4.09375 2.59375 -4.09375 C 2.875 -4.09375 3.101562 -4.054688 3.28125 -3.984375 C 3.457031 -3.890625 3.609375 -3.773438 3.734375 -3.640625 C 3.972656 -3.359375 4.09375 -2.984375 4.09375 -2.515625 L 4.09375 0 Z M 3.453125 0 "/></g></g></g><g fill="#0c2d57" fill-opacity="1"><g transform="translate(127.375011, 18.833426)"><g><path d="M 1.328125 -5.40625 C 1.410156 -5.320312 1.453125 -5.226562 1.453125 -5.125 C 1.453125 -5.007812 1.410156 -4.910156 1.328125 -4.828125 C 1.253906 -4.742188 1.160156 -4.703125 1.046875 -4.703125 C 0.929688 -4.703125 0.832031 -4.742188 0.75 -4.828125 C 0.675781 -4.910156 0.640625 -5.007812 0.640625 -5.125 C 0.640625 -5.226562 0.675781 -5.320312 0.75 -5.40625 C 0.832031 -5.476562 0.929688 -5.515625 1.046875 -5.515625 C 1.160156 -5.515625 1.253906 -5.476562 1.328125 -5.40625 Z M 1.375 0 L 0.734375 0 L 0.734375 -4.015625 L 1.375 -4.015625 Z M 1.375 0 "/></g></g></g><g fill="#0c2d57" fill-opacity="1"><g transform="translate(130.511163, 18.833426)"><g><path d="M 4.4375 -2.578125 L 3.734375 -2.578125 C 3.628906 -2.828125 3.460938 -3.03125 3.234375 -3.1875 C 3.003906 -3.351562 2.769531 -3.4375 2.53125 -3.4375 C 2.289062 -3.4375 2.085938 -3.398438 1.921875 -3.328125 C 1.742188 -3.242188 1.597656 -3.140625 1.484375 -3.015625 C 1.203125 -2.722656 1.0625 -2.382812 1.0625 -2 C 1.0625 -1.613281 1.203125 -1.28125 1.484375 -1 C 1.742188 -0.71875 2.070312 -0.578125 2.46875 -0.578125 C 2.71875 -0.578125 2.953125 -0.644531 3.171875 -0.78125 C 3.390625 -0.90625 3.554688 -1.082031 3.671875 -1.3125 L 4.390625 -1.3125 C 4.171875 -0.664062 3.738281 -0.234375 3.09375 -0.015625 C 2.894531 0.0546875 2.664062 0.09375 2.40625 0.09375 C 2.15625 0.09375 1.90625 0.0351562 1.65625 -0.078125 C 1.40625 -0.191406 1.1875 -0.34375 1 -0.53125 C 0.601562 -0.945312 0.40625 -1.4375 0.40625 -2 C 0.40625 -2.570312 0.601562 -3.066406 1 -3.484375 C 1.40625 -3.890625 1.894531 -4.09375 2.46875 -4.09375 C 2.925781 -4.09375 3.34375 -3.953125 3.71875 -3.671875 C 4.070312 -3.390625 4.3125 -3.023438 4.4375 -2.578125 Z M 4.4375 -2.578125 "/></g></g></g><g fill="#0c2d57" fill-opacity="1"><g transform="translate(136.308926, 18.833426)"><g><path d="M 3.875 -2 C 3.875 -2.394531 3.742188 -2.738281 3.484375 -3.03125 C 3.203125 -3.320312 2.863281 -3.46875 2.46875 -3.46875 C 2.0625 -3.46875 1.722656 -3.320312 1.453125 -3.03125 C 1.179688 -2.738281 1.046875 -2.394531 1.046875 -2 C 1.046875 -1.613281 1.179688 -1.273438 1.453125 -0.984375 C 1.722656 -0.691406 2.0625 -0.546875 2.46875 -0.546875 C 2.863281 -0.546875 3.203125 -0.691406 3.484375 -0.984375 C 3.742188 -1.273438 3.875 -1.613281 3.875 -2 Z M 4.515625 0 L 3.875 0 L 3.875 -0.6875 C 3.84375 -0.632812 3.804688 -0.585938 3.765625 -0.546875 C 3.378906 -0.117188 2.910156 0.09375 2.359375 0.09375 C 1.804688 0.09375 1.34375 -0.117188 0.96875 -0.546875 C 0.59375 -0.960938 0.40625 -1.445312 0.40625 -2 C 0.40625 -2.5625 0.59375 -3.050781 0.96875 -3.46875 C 1.34375 -3.894531 1.804688 -4.109375 2.359375 -4.109375 C 2.910156 -4.109375 3.378906 -3.894531 3.765625 -3.46875 C 3.804688 -3.425781 3.84375 -3.378906 3.875 -3.328125 L 3.875 -4.015625 L 4.515625 -4.015625 Z M 4.515625 0 "/></g></g></g><path stroke-linecap="butt" transform="matrix(0.749995, -0.00277347, 0.00277347, 0.749995, 56.009719, 23.68159)" fill="none" stroke-linejoin="miter" d="M 0.00082636 0.49747 L 114.387031 0.498591 " stroke="#c19b29" stroke-width="1" stroke-opacity="1" stroke-miterlimit="4"/><g clip-path="url(#938f3f12e7)"><g clip-path="url(#dfcded3ff7)"><g clip-path="url(#e1aa65be3d)"><path fill="#0c2d57" d="M 10.054688 41.089844 C 9.441406 40.632812 8.855469 40.195312 8.234375 39.730469 C 8.242188 40.207031 8.25 40.644531 8.253906 41.070312 C 8.496094 41.171875 9.546875 41.179688 10.054688 41.089844 Z M 8.894531 34.132812 C 8.414062 33.964844 7.84375 33.941406 7.40625 34.046875 C 6.277344 34.316406 5.855469 35.363281 6.019531 36.132812 C 6.847656 35.285156 7.773438 34.609375 8.894531 34.132812 Z M 9.191406 34.257812 C 9.097656 34.28125 9.0625 34.289062 9.035156 34.300781 C 8 34.742188 7.058594 35.328125 6.246094 36.128906 C 6.078125 36.296875 6.027344 36.441406 6.101562 36.660156 C 6.296875 37.246094 6.617188 37.75 7 38.214844 C 7.273438 38.546875 7.566406 38.863281 7.953125 39.152344 C 7.960938 39.019531 7.964844 38.929688 7.96875 38.835938 C 8 38.324219 8.011719 37.8125 8.0625 37.300781 C 8.167969 36.230469 8.542969 35.230469 9.191406 34.257812 Z M 8.273438 41.429688 C 8.402344 42.441406 8.828125 43.238281 9.648438 43.78125 C 10.003906 44.015625 10.402344 44.152344 10.863281 44.101562 C 11.199219 44.0625 11.496094 43.929688 11.738281 43.675781 C 11.992188 43.417969 12.007812 43.0625 11.785156 42.816406 C 11.617188 42.628906 11.441406 42.449219 11.304688 42.238281 C 11.121094 41.957031 10.878906 41.730469 10.617188 41.519531 C 10.480469 41.40625 10.332031 41.34375 10.128906 41.363281 C 9.738281 41.394531 9.347656 41.394531 8.953125 41.40625 C 8.738281 41.414062 8.519531 41.421875 8.273438 41.429688 Z M 18.101562 34.976562 C 18.101562 34.898438 18.109375 34.847656 18.101562 34.800781 C 18.015625 34.3125 17.816406 33.882812 17.511719 33.507812 C 16.9375 32.796875 16.175781 32.359375 15.28125 32.132812 C 14.742188 31.996094 14.191406 31.886719 13.613281 32.011719 C 13.078125 32.128906 12.542969 32.253906 12.015625 32.410156 C 11.421875 32.582031 10.871094 32.875 10.382812 33.277344 C 10.230469 33.40625 10.0625 33.527344 9.957031 33.726562 C 12.972656 32.894531 15.667969 33.328125 18.101562 34.976562 Z M 18.03125 36.109375 C 17.695312 36.03125 17.382812 35.957031 17.070312 35.890625 C 16.117188 35.6875 15.15625 35.652344 14.175781 35.929688 C 13.726562 36.054688 13.304688 36.242188 12.878906 36.519531 C 13.8125 37.390625 14.753906 38.21875 15.5625 39.195312 C 16.675781 38.367188 17.613281 37.457031 18.03125 36.109375 Z M 11.027344 41.003906 C 12.542969 40.761719 13.957031 40.230469 15.300781 39.367188 C 14.476562 38.382812 13.5625 37.539062 12.644531 36.707031 C 11.25 37.503906 10.445312 39.644531 11.027344 41.003906 Z M 8.070312 41.414062 C 7.558594 41.382812 7.070312 41.390625 6.582031 41.464844 C 6.257812 41.515625 5.941406 41.601562 5.652344 41.777344 C 5.140625 42.085938 4.976562 42.53125 5.171875 43.054688 C 5.328125 43.476562 5.625 43.785156 5.976562 44.023438 C 7.300781 44.921875 8.8125 45.191406 10.464844 44.898438 C 10.925781 44.816406 11.371094 44.632812 11.746094 44.308594 C 11.898438 44.179688 12.039062 44.035156 12.070312 43.84375 C 11.910156 43.960938 11.757812 44.089844 11.589844 44.183594 C 11.003906 44.503906 10.433594 44.476562 9.882812 44.222656 C 9.269531 43.941406 8.859375 43.457031 8.527344 42.898438 C 8.261719 42.453125 8.125 41.957031 8.070312 41.414062 Z M 18.082031 35.742188 C 18.171875 35.519531 18.109375 35.390625 17.941406 35.265625 C 17.335938 34.8125 16.671875 34.457031 15.960938 34.179688 C 13.988281 33.410156 11.929688 33.410156 9.804688 34.019531 C 9.742188 34.039062 9.683594 34.074219 9.5625 34.128906 C 10.195312 34.398438 10.726562 34.726562 11.214844 35.117188 C 11.703125 35.503906 12.175781 35.90625 12.652344 36.300781 C 12.726562 36.257812 12.785156 36.230469 12.835938 36.195312 C 13.503906 35.789062 14.214844 35.546875 14.96875 35.457031 C 15.585938 35.378906 16.1875 35.417969 16.785156 35.511719 C 17.214844 35.578125 17.640625 35.664062 18.082031 35.742188 Z M 10.683594 41.027344 C 10.242188 39.21875 10.886719 37.734375 12.367188 36.503906 C 11.980469 35.945312 9.933594 34.441406 9.4375 34.359375 C 8.980469 35.042969 8.628906 35.769531 8.460938 36.566406 C 8.269531 37.46875 8.277344 38.371094 8.242188 39.269531 C 8.238281 39.417969 8.320312 39.492188 8.410156 39.5625 C 9.042969 40.035156 9.679688 40.507812 10.316406 40.984375 C 10.414062 41.0625 10.523438 41.09375 10.683594 41.027344 Z M 15.46875 39.605469 C 14.796875 40.03125 14.101562 40.390625 13.375 40.671875 C 12.640625 40.949219 11.886719 41.128906 11.113281 41.269531 C 11.21875 41.5625 11.351562 41.792969 11.539062 41.988281 C 11.710938 42.167969 11.871094 42.363281 12.039062 42.546875 C 12.179688 42.699219 12.308594 42.867188 12.472656 42.988281 C 13.683594 43.867188 15.0625 44.179688 16.621094 43.847656 C 16.6875 43.835938 16.753906 43.804688 16.8125 43.785156 C 17.007812 42.566406 16.476562 40.847656 15.46875 39.605469 Z M 15.742188 39.421875 C 16.644531 40.667969 17.289062 42.007812 17.195312 43.664062 C 17.265625 43.640625 17.308594 43.632812 17.347656 43.617188 C 17.929688 43.378906 18.457031 43.050781 18.898438 42.597656 C 19.730469 41.75 20.167969 40.746094 20.203125 39.605469 C 20.238281 38.484375 19.878906 37.507812 19.265625 36.632812 C 19.207031 36.542969 19.15625 36.417969 19.070312 36.382812 C 18.832031 36.289062 18.585938 36.203125 18.3125 36.1875 C 18.097656 36.875 17.75 37.46875 17.300781 38.011719 C 16.851562 38.550781 16.3125 38.988281 15.742188 39.421875 Z M 12.375 43.320312 C 12.398438 43.898438 12.128906 44.292969 11.6875 44.59375 C 11.394531 44.792969 11.066406 44.910156 10.726562 44.988281 C 9.722656 45.222656 8.742188 45.1875 7.785156 44.941406 C 6.953125 44.730469 6.183594 44.40625 5.574219 43.804688 C 5.375 43.605469 5.199219 43.386719 5.085938 43.121094 C 4.832031 42.527344 5.082031 41.890625 5.613281 41.597656 C 5.785156 41.503906 5.96875 41.421875 6.152344 41.359375 C 6.589844 41.214844 7.035156 41.191406 7.480469 41.171875 C 7.632812 41.164062 7.785156 41.15625 7.9375 41.148438 C 7.941406 40.691406 7.933594 40.269531 7.957031 39.84375 C 7.972656 39.585938 7.902344 39.414062 7.707031 39.253906 C 7.226562 38.851562 6.816406 38.378906 6.460938 37.859375 C 6.199219 37.46875 6.003906 37.042969 5.851562 36.542969 C 5.65625 36.8125 5.472656 37.042969 5.308594 37.289062 C 4.304688 38.808594 4 40.394531 4.46875 42.046875 C 4.753906 43.0625 5.261719 43.949219 5.933594 44.738281 C 7.027344 46.019531 8.402344 46.890625 10.058594 47.34375 C 11.332031 47.691406 12.640625 47.710938 13.96875 47.25 C 14.792969 46.960938 15.503906 46.507812 16.046875 45.796875 C 16.414062 45.3125 16.660156 44.785156 16.777344 44.179688 C 15.144531 44.503906 13.707031 44.179688 12.375 43.320312 Z M 38.121094 17.355469 C 38.125 17.152344 38.015625 17.046875 37.910156 16.941406 C 37.617188 16.660156 37.105469 16.585938 36.726562 16.777344 C 36.355469 16.960938 36.144531 17.347656 36.191406 17.769531 C 36.238281 18.207031 36.457031 18.550781 36.769531 18.828125 C 37.421875 19.402344 38.199219 19.636719 39.105469 19.46875 C 40.285156 19.25 41.050781 18.179688 40.878906 17.023438 C 40.785156 16.386719 40.480469 15.863281 40.042969 15.417969 C 39.175781 14.527344 38.089844 14.121094 36.785156 14.214844 C 36.101562 14.265625 35.453125 14.464844 34.871094 14.894531 C 34.234375 15.363281 33.828125 15.972656 33.652344 16.714844 C 33.417969 17.703125 33.582031 18.621094 34.035156 19.457031 C 34.816406 20.894531 36 21.859375 37.660156 22.164062 C 39.371094 22.476562 40.871094 21.910156 42.0625 20.511719 C 43.277344 19.089844 43.441406 17.53125 42.859375 15.933594 C 42.550781 15.085938 42 14.40625 41.339844 13.8125 C 40.59375 13.132812 39.746094 12.601562 38.78125 12.25 C 37.925781 11.941406 37.035156 11.78125 36.089844 11.894531 C 34.859375 12.042969 33.777344 12.558594 32.84375 13.4375 C 31.617188 14.589844 31.101562 15.980469 31.1875 17.554688 C 31.25 18.761719 31.644531 19.855469 32.214844 20.875 C 32.859375 22.023438 33.703125 22.992188 34.839844 23.679688 C 36.09375 24.4375 37.476562 24.753906 39.015625 24.457031 C 39.972656 24.269531 40.84375 23.855469 41.652344 23.289062 C 42.671875 22.570312 43.550781 21.710938 44.25 20.683594 C 45.511719 18.835938 45.613281 16.96875 44.765625 15.101562 C 44.429688 14.363281 43.976562 13.707031 43.433594 13.109375 C 42.640625 12.226562 41.738281 11.476562 40.628906 10.996094 C 38.378906 10.027344 36.054688 10.148438 33.710938 11.253906 C 31.398438 12.351562 29.921875 14.183594 29.109375 16.554688 C 28.605469 18.035156 28.457031 19.535156 28.574219 21.035156 C 28.660156 22.148438 28.808594 23.253906 28.945312 24.359375 C 29.101562 25.585938 29.214844 26.820312 29.148438 28.074219 C 29.070312 29.554688 28.632812 30.960938 27.859375 32.285156 C 27.304688 33.242188 26.632812 34.109375 25.804688 34.859375 C 24.234375 36.28125 22.453125 36.863281 20.460938 36.617188 C 20.191406 36.582031 19.921875 36.535156 19.667969 36.5 C 19.871094 36.925781 20.101562 37.335938 20.265625 37.773438 C 20.648438 38.800781 20.699219 39.875 20.3125 40.976562 C 19.804688 42.429688 18.804688 43.421875 17.363281 43.976562 C 17.195312 44.042969 17.113281 44.117188 17.070312 44.300781 C 16.71875 45.753906 15.804688 46.753906 14.433594 47.34375 C 13.179688 47.886719 11.910156 47.949219 10.644531 47.695312 C 9.320312 47.429688 8.160156 46.863281 7.121094 46.066406 C 6.644531 45.703125 6.210938 45.300781 5.832031 44.84375 C 5.082031 43.933594 4.527344 42.910156 4.265625 41.730469 C 3.902344 40.117188 4.273438 38.589844 5.238281 37.144531 C 5.375 36.933594 5.53125 36.730469 5.691406 36.535156 C 5.785156 36.421875 5.816406 36.320312 5.800781 36.179688 C 5.746094 35.742188 5.785156 35.308594 6.007812 34.898438 C 6.398438 34.179688 7.019531 33.839844 7.792969 33.773438 C 8.230469 33.738281 8.640625 33.8125 9.042969 33.933594 C 9.308594 34.011719 9.355469 34 9.539062 33.773438 C 10.21875 32.929688 11.089844 32.375 12.089844 32.066406 C 13.613281 31.59375 15.074219 31.671875 16.4375 32.34375 C 17.195312 32.714844 17.800781 33.246094 18.160156 34.027344 C 18.308594 34.34375 18.402344 34.675781 18.421875 35.03125 C 18.433594 35.1875 18.484375 35.296875 18.605469 35.394531 C 18.796875 35.554688 18.957031 35.75 19.140625 35.921875 C 19.203125 35.984375 19.28125 36.042969 19.367188 36.0625 C 20.34375 36.277344 21.328125 36.40625 22.359375 36.238281 C 23.292969 36.085938 24.15625 35.71875 24.921875 35.125 C 27.226562 33.335938 28.503906 31.03125 28.796875 28.234375 C 28.90625 27.183594 28.832031 26.152344 28.71875 25.128906 C 28.605469 24.085938 28.464844 23.050781 28.34375 22.011719 C 28.179688 20.613281 28.191406 19.203125 28.445312 17.78125 C 28.714844 16.246094 29.324219 14.835938 30.3125 13.558594 C 32.695312 10.480469 36.984375 9.25 40.292969 10.464844 C 41.230469 10.8125 42.058594 11.324219 42.804688 11.96875 C 43.589844 12.644531 44.257812 13.417969 44.78125 14.308594 C 45.300781 15.195312 45.636719 16.15625 45.679688 17.21875 C 45.734375 18.453125 45.390625 19.609375 44.683594 20.683594 C 43.609375 22.316406 42.226562 23.605469 40.433594 24.398438 C 38.726562 25.148438 37.0625 25.121094 35.460938 24.433594 C 34.273438 23.921875 33.332031 23.117188 32.570312 22.097656 C 31.757812 21.015625 31.183594 19.8125 30.917969 18.449219 C 30.710938 17.390625 30.746094 16.324219 31.164062 15.261719 C 31.652344 14.019531 32.511719 13.078125 33.652344 12.378906 C 35.128906 11.46875 36.667969 11.277344 38.242188 11.679688 C 39.421875 11.980469 40.457031 12.539062 41.375 13.304688 C 42.164062 13.96875 42.804688 14.75 43.199219 15.722656 C 43.777344 17.152344 43.71875 18.613281 42.863281 20.039062 C 41.847656 21.730469 40.339844 22.589844 38.429688 22.632812 C 37.347656 22.65625 36.40625 22.289062 35.558594 21.714844 C 34.496094 21 33.734375 20.039062 33.351562 18.789062 C 33.144531 18.113281 33.101562 17.410156 33.28125 16.691406 C 33.597656 15.398438 34.410156 14.53125 35.667969 14.085938 C 36.886719 13.648438 38.039062 13.765625 39.128906 14.285156 C 40 14.695312 40.65625 15.328125 41.039062 16.222656 C 41.210938 16.613281 41.296875 17.027344 41.273438 17.46875 C 41.214844 18.640625 40.375 19.59375 39.179688 19.847656 C 37.988281 20.101562 36.664062 19.5625 36.070312 18.578125 C 35.867188 18.238281 35.761719 17.867188 35.835938 17.449219 C 35.921875 16.953125 36.210938 16.605469 36.683594 16.410156 C 37.308594 16.15625 38 16.34375 38.363281 16.859375 C 38.492188 17.042969 38.550781 17.25 38.507812 17.488281 C 38.453125 17.785156 38.207031 18.023438 37.933594 18.050781 C 37.773438 18.070312 37.640625 18.003906 37.589844 17.886719 C 37.535156 17.746094 37.597656 17.632812 37.699219 17.527344 C 37.816406 17.410156 37.945312 17.324219 38.121094 17.355469 " fill-opacity="1" fill-rule="nonzero"/></g></g></g><g fill="#0c2d57" fill-opacity="1"><g transform="translate(60.416735, 44.325034)"><g><path d="M 8.953125 -3.171875 C 9.035156 -3.179688 9.125 -3.179688 9.21875 -3.171875 C 9.3125 -3.171875 9.398438 -3.148438 9.484375 -3.109375 C 9.492188 -3.085938 9.503906 -3.0625 9.515625 -3.03125 C 9.535156 -3 9.550781 -2.960938 9.5625 -2.921875 C 9.5625 -2.910156 9.550781 -2.894531 9.53125 -2.875 C 9.507812 -2.851562 9.492188 -2.835938 9.484375 -2.828125 C 9.441406 -2.804688 9.40625 -2.789062 9.375 -2.78125 C 8.851562 -2.675781 8.375 -2.503906 7.9375 -2.265625 C 7.507812 -2.023438 7.097656 -1.75 6.703125 -1.4375 C 6.171875 -1.019531 5.675781 -0.5625 5.21875 -0.0625 C 4.769531 0.4375 4.347656 0.957031 3.953125 1.5 C 3.191406 2.519531 2.484375 3.582031 1.828125 4.6875 C 1.671875 4.9375 1.515625 5.179688 1.359375 5.421875 C 1.335938 5.472656 1.3125 5.515625 1.28125 5.546875 C 1.207031 5.671875 1.128906 5.785156 1.046875 5.890625 C 0.816406 6.128906 0.550781 6.1875 0.25 6.0625 C 0.125 6 0.0507812 5.914062 0.03125 5.8125 C 0.0078125 5.707031 0.0078125 5.59375 0.03125 5.46875 C 0.207031 3.925781 0.3125 2.378906 0.34375 0.828125 C 0.40625 -1.242188 0.445312 -3.316406 0.46875 -5.390625 C 0.488281 -7.460938 0.453125 -9.535156 0.359375 -11.609375 C 0.304688 -12.847656 0.238281 -14.09375 0.15625 -15.34375 C 0.113281 -15.914062 0.0703125 -16.488281 0.03125 -17.0625 C 0.03125 -17.113281 0.0234375 -17.160156 0.015625 -17.203125 C 0.015625 -17.316406 0.015625 -17.429688 0.015625 -17.546875 C 0.0234375 -17.734375 0.125 -17.835938 0.3125 -17.859375 C 0.425781 -17.878906 0.523438 -17.867188 0.609375 -17.828125 C 0.703125 -17.785156 0.753906 -17.722656 0.765625 -17.640625 C 0.835938 -17.347656 0.890625 -17.054688 0.921875 -16.765625 C 0.921875 -16.679688 0.925781 -16.59375 0.9375 -16.5 C 1.050781 -14.882812 1.148438 -13.269531 1.234375 -11.65625 C 1.316406 -10.050781 1.359375 -8.441406 1.359375 -6.828125 C 1.359375 -5.222656 1.335938 -3.617188 1.296875 -2.015625 C 1.273438 -0.691406 1.238281 0.628906 1.1875 1.953125 C 1.175781 2.253906 1.160156 2.554688 1.140625 2.859375 C 1.128906 3.035156 1.117188 3.210938 1.109375 3.390625 C 1.097656 3.535156 1.085938 3.6875 1.078125 3.84375 C 1.078125 3.914062 1.078125 3.988281 1.078125 4.0625 C 1.097656 4.070312 1.113281 4.078125 1.125 4.078125 C 1.15625 4.078125 1.179688 4.082031 1.203125 4.09375 C 1.242188 4.03125 1.28125 3.972656 1.3125 3.921875 C 1.414062 3.753906 1.523438 3.585938 1.640625 3.421875 C 2.367188 2.253906 3.171875 1.148438 4.046875 0.109375 C 4.492188 -0.421875 4.972656 -0.910156 5.484375 -1.359375 C 5.992188 -1.804688 6.550781 -2.207031 7.15625 -2.5625 C 7.4375 -2.71875 7.722656 -2.847656 8.015625 -2.953125 C 8.316406 -3.054688 8.628906 -3.128906 8.953125 -3.171875 Z M 8.953125 -3.171875 "/></g></g></g><g fill="#0c2d57" fill-opacity="1"><g transform="translate(69.085607, 44.325034)"><g><path d="M 2.78125 -2.171875 C 2.664062 -1.941406 2.472656 -1.6875 2.203125 -1.40625 C 1.941406 -1.132812 1.640625 -0.957031 1.296875 -0.875 C 0.960938 -0.800781 0.644531 -0.921875 0.34375 -1.234375 C 0.226562 -1.367188 0.140625 -1.523438 0.078125 -1.703125 C 0.0234375 -1.878906 0.00390625 -2.050781 0.015625 -2.21875 C 0.015625 -2.269531 0.015625 -2.332031 0.015625 -2.40625 C 0.015625 -2.582031 0.0195312 -2.789062 0.03125 -3.03125 C 0.0507812 -3.269531 0.0859375 -3.484375 0.140625 -3.671875 C 0.203125 -3.867188 0.289062 -3.988281 0.40625 -4.03125 C 0.75 -4.113281 0.9375 -3.992188 0.96875 -3.671875 C 0.96875 -3.566406 0.960938 -3.460938 0.953125 -3.359375 C 0.941406 -3.304688 0.9375 -3.257812 0.9375 -3.21875 C 0.9375 -3.0625 0.929688 -2.910156 0.921875 -2.765625 C 0.921875 -2.648438 0.914062 -2.53125 0.90625 -2.40625 C 0.894531 -1.894531 1.007812 -1.585938 1.25 -1.484375 C 1.488281 -1.390625 1.757812 -1.492188 2.0625 -1.796875 C 2.375 -2.109375 2.578125 -2.363281 2.671875 -2.5625 C 2.765625 -2.769531 2.832031 -2.8125 2.875 -2.6875 C 2.925781 -2.570312 2.894531 -2.398438 2.78125 -2.171875 Z M 0.890625 -5.125 C 0.847656 -5.09375 0.789062 -5.070312 0.71875 -5.0625 C 0.65625 -5.050781 0.597656 -5.054688 0.546875 -5.078125 C 0.515625 -5.109375 0.488281 -5.148438 0.46875 -5.203125 C 0.457031 -5.253906 0.453125 -5.3125 0.453125 -5.375 C 0.453125 -5.394531 0.457031 -5.410156 0.46875 -5.421875 C 0.476562 -5.484375 0.492188 -5.550781 0.515625 -5.625 C 0.585938 -5.789062 0.738281 -5.867188 0.96875 -5.859375 C 1.039062 -5.847656 1.097656 -5.8125 1.140625 -5.75 C 1.191406 -5.695312 1.203125 -5.632812 1.171875 -5.5625 C 1.117188 -5.394531 1.023438 -5.25 0.890625 -5.125 Z M 0.890625 -5.125 "/></g></g></g><g fill="#0c2d57" fill-opacity="1"><g transform="translate(71.714649, 44.325034)"><g><path d="M 3.859375 -2.5 C 3.921875 -2.644531 3.988281 -2.71875 4.0625 -2.71875 C 4.132812 -2.71875 4.160156 -2.644531 4.140625 -2.5 C 4.015625 -2.132812 3.867188 -1.785156 3.703125 -1.453125 C 3.546875 -1.117188 3.328125 -0.816406 3.046875 -0.546875 C 2.828125 -0.335938 2.570312 -0.203125 2.28125 -0.140625 C 1.875 -0.078125 1.539062 -0.125 1.28125 -0.28125 C 1.019531 -0.4375 0.8125 -0.65625 0.65625 -0.9375 C 0.5 -1.226562 0.382812 -1.546875 0.3125 -1.890625 C 0.238281 -2.234375 0.191406 -2.5625 0.171875 -2.875 C 0.109375 -3.488281 0.0625 -4.289062 0.03125 -5.28125 C 0.0078125 -6.269531 0.0195312 -7.3125 0.0625 -8.40625 C 0.113281 -9.507812 0.222656 -10.53125 0.390625 -11.46875 C 0.554688 -12.414062 0.804688 -13.148438 1.140625 -13.671875 C 1.328125 -13.921875 1.546875 -14.046875 1.796875 -14.046875 C 2.054688 -14.054688 2.28125 -13.945312 2.46875 -13.71875 C 2.601562 -13.53125 2.703125 -13.332031 2.765625 -13.125 C 2.835938 -12.925781 2.882812 -12.722656 2.90625 -12.515625 C 2.976562 -11.785156 2.96875 -11.019531 2.875 -10.21875 C 2.789062 -9.414062 2.648438 -8.554688 2.453125 -7.640625 C 2.265625 -6.722656 2.035156 -5.914062 1.765625 -5.21875 C 1.492188 -4.519531 1.269531 -3.96875 1.09375 -3.5625 C 1 -3.40625 0.960938 -3.160156 0.984375 -2.828125 C 1.015625 -2.460938 1.082031 -2.082031 1.1875 -1.6875 C 1.300781 -1.300781 1.453125 -0.992188 1.640625 -0.765625 C 1.816406 -0.578125 2.015625 -0.515625 2.234375 -0.578125 C 2.460938 -0.648438 2.6875 -0.800781 2.90625 -1.03125 C 3.125 -1.257812 3.316406 -1.507812 3.484375 -1.78125 C 3.648438 -2.050781 3.773438 -2.289062 3.859375 -2.5 Z M 1.015625 -7.96875 C 0.992188 -7.738281 0.972656 -7.382812 0.953125 -6.90625 C 0.929688 -6.425781 0.910156 -5.941406 0.890625 -5.453125 C 0.878906 -4.898438 0.863281 -4.472656 0.84375 -4.171875 C 1.019531 -4.554688 1.222656 -5.125 1.453125 -5.875 C 1.691406 -6.625 1.90625 -7.507812 2.09375 -8.53125 C 2.28125 -9.550781 2.40625 -10.65625 2.46875 -11.84375 C 2.4375 -12.53125 2.351562 -12.992188 2.21875 -13.234375 C 2.082031 -13.484375 1.9375 -13.503906 1.78125 -13.296875 C 1.625 -13.097656 1.5 -12.675781 1.40625 -12.03125 C 1.257812 -10.945312 1.148438 -9.859375 1.078125 -8.765625 C 1.046875 -8.503906 1.023438 -8.238281 1.015625 -7.96875 Z M 1.015625 -7.96875 "/></g></g></g><g fill="#0c2d57" fill-opacity="1"><g transform="translate(75.521672, 44.325034)"><g><path d="M 2.78125 -2.171875 C 2.664062 -1.941406 2.472656 -1.6875 2.203125 -1.40625 C 1.941406 -1.132812 1.640625 -0.957031 1.296875 -0.875 C 0.960938 -0.800781 0.644531 -0.921875 0.34375 -1.234375 C 0.226562 -1.367188 0.140625 -1.523438 0.078125 -1.703125 C 0.0234375 -1.878906 0.00390625 -2.050781 0.015625 -2.21875 C 0.015625 -2.269531 0.015625 -2.332031 0.015625 -2.40625 C 0.015625 -2.582031 0.0195312 -2.789062 0.03125 -3.03125 C 0.0507812 -3.269531 0.0859375 -3.484375 0.140625 -3.671875 C 0.203125 -3.867188 0.289062 -3.988281 0.40625 -4.03125 C 0.75 -4.113281 0.9375 -3.992188 0.96875 -3.671875 C 0.96875 -3.566406 0.960938 -3.460938 0.953125 -3.359375 C 0.941406 -3.304688 0.9375 -3.257812 0.9375 -3.21875 C 0.9375 -3.0625 0.929688 -2.910156 0.921875 -2.765625 C 0.921875 -2.648438 0.914062 -2.53125 0.90625 -2.40625 C 0.894531 -1.894531 1.007812 -1.585938 1.25 -1.484375 C 1.488281 -1.390625 1.757812 -1.492188 2.0625 -1.796875 C 2.375 -2.109375 2.578125 -2.363281 2.671875 -2.5625 C 2.765625 -2.769531 2.832031 -2.8125 2.875 -2.6875 C 2.925781 -2.570312 2.894531 -2.398438 2.78125 -2.171875 Z M 0.890625 -5.125 C 0.847656 -5.09375 0.789062 -5.070312 0.71875 -5.0625 C 0.65625 -5.050781 0.597656 -5.054688 0.546875 -5.078125 C 0.515625 -5.109375 0.488281 -5.148438 0.46875 -5.203125 C 0.457031 -5.253906 0.453125 -5.3125 0.453125 -5.375 C 0.453125 -5.394531 0.457031 -5.410156 0.46875 -5.421875 C 0.476562 -5.484375 0.492188 -5.550781 0.515625 -5.625 C 0.585938 -5.789062 0.738281 -5.867188 0.96875 -5.859375 C 1.039062 -5.847656 1.097656 -5.8125 1.140625 -5.75 C 1.191406 -5.695312 1.203125 -5.632812 1.171875 -5.5625 C 1.117188 -5.394531 1.023438 -5.25 0.890625 -5.125 Z M 0.890625 -5.125 "/></g></g></g><g fill="#0c2d57" fill-opacity="1"><g transform="translate(78.150714, 44.325034)"><g><path d="M 6.046875 -2.75 C 5.953125 -2.445312 5.757812 -2.101562 5.46875 -1.71875 C 5.1875 -1.332031 4.828125 -1.082031 4.390625 -0.96875 C 3.953125 -0.863281 3.570312 -0.878906 3.25 -1.015625 C 2.9375 -1.160156 2.765625 -1.539062 2.734375 -2.15625 C 2.367188 -1.457031 2.019531 -1.007812 1.6875 -0.8125 C 1.363281 -0.613281 1.03125 -0.535156 0.6875 -0.578125 C 0.28125 -0.648438 0.0078125 -0.804688 -0.125 -1.046875 C -0.269531 -1.296875 -0.316406 -1.582031 -0.265625 -1.90625 C -0.222656 -2.226562 -0.128906 -2.535156 0.015625 -2.828125 C 0.140625 -3.054688 0.304688 -3.265625 0.515625 -3.453125 C 0.722656 -3.640625 0.941406 -3.785156 1.171875 -3.890625 C 1.453125 -4.035156 1.734375 -4.101562 2.015625 -4.09375 C 2.304688 -4.09375 2.613281 -4 2.9375 -3.8125 C 2.945312 -3.800781 2.953125 -3.804688 2.953125 -3.828125 C 2.953125 -3.867188 2.957031 -3.910156 2.96875 -3.953125 C 2.988281 -4.003906 3.015625 -4.046875 3.046875 -4.078125 C 3.160156 -4.148438 3.289062 -4.1875 3.4375 -4.1875 C 3.582031 -4.1875 3.691406 -4.113281 3.765625 -3.96875 C 3.785156 -3.78125 3.769531 -3.539062 3.71875 -3.25 C 3.59375 -2.601562 3.585938 -2.140625 3.703125 -1.859375 C 3.828125 -1.578125 4.035156 -1.445312 4.328125 -1.46875 C 4.628906 -1.488281 5.015625 -1.78125 5.484375 -2.34375 C 5.960938 -2.914062 6.148438 -3.050781 6.046875 -2.75 Z M 0.78125 -1.25 C 0.945312 -1.125 1.132812 -1.132812 1.34375 -1.28125 C 1.5625 -1.4375 1.769531 -1.648438 1.96875 -1.921875 C 2.164062 -2.203125 2.328125 -2.476562 2.453125 -2.75 C 2.585938 -3.03125 2.664062 -3.234375 2.6875 -3.359375 C 2.28125 -3.578125 1.929688 -3.613281 1.640625 -3.46875 C 1.359375 -3.332031 1.132812 -3.101562 0.96875 -2.78125 C 0.800781 -2.457031 0.703125 -2.144531 0.671875 -1.84375 C 0.640625 -1.539062 0.675781 -1.34375 0.78125 -1.25 Z M 0.78125 -1.25 "/></g></g></g><g fill="#0c2d57" fill-opacity="1"><g transform="translate(83.826441, 44.325034)"><g><path d="M 4.421875 -2.0625 C 4.703125 -2.5 4.867188 -2.773438 4.921875 -2.890625 C 4.972656 -3.003906 5.015625 -3 5.046875 -2.875 C 5.078125 -2.75 4.988281 -2.457031 4.78125 -2 C 4.570312 -1.550781 4.3125 -1.203125 4 -0.953125 C 3.695312 -0.710938 3.410156 -0.625 3.140625 -0.6875 C 2.878906 -0.75 2.691406 -0.929688 2.578125 -1.234375 C 2.460938 -1.546875 2.425781 -1.9375 2.46875 -2.40625 C 2.46875 -2.40625 2.472656 -2.421875 2.484375 -2.453125 C 2.492188 -2.535156 2.507812 -2.648438 2.53125 -2.796875 C 2.550781 -2.953125 2.5625 -3.113281 2.5625 -3.28125 C 2.570312 -3.445312 2.566406 -3.582031 2.546875 -3.6875 C 2.523438 -3.789062 2.476562 -3.828125 2.40625 -3.796875 C 2.21875 -3.691406 2.03125 -3.488281 1.84375 -3.1875 C 1.664062 -2.894531 1.503906 -2.582031 1.359375 -2.25 C 1.210938 -1.914062 1.109375 -1.648438 1.046875 -1.453125 C 1.023438 -1.378906 1.003906 -1.3125 0.984375 -1.25 C 0.953125 -1.15625 0.914062 -1.0625 0.875 -0.96875 C 0.769531 -0.695312 0.585938 -0.59375 0.328125 -0.65625 C 0.191406 -0.6875 0.109375 -0.773438 0.078125 -0.921875 C 0.0664062 -1.023438 0.0625 -1.128906 0.0625 -1.234375 C 0.0625 -1.296875 0.0625 -1.351562 0.0625 -1.40625 C 0.0390625 -2.195312 0.0195312 -2.992188 0 -3.796875 C 0.0078125 -3.890625 0.0507812 -3.953125 0.125 -3.984375 C 0.195312 -4.023438 0.285156 -4.046875 0.390625 -4.046875 C 0.472656 -4.046875 0.546875 -4.023438 0.609375 -3.984375 C 0.679688 -3.941406 0.726562 -3.851562 0.75 -3.71875 C 0.75 -3.664062 0.75 -3.617188 0.75 -3.578125 C 0.757812 -3.554688 0.765625 -3.535156 0.765625 -3.515625 C 0.773438 -3.398438 0.78125 -3.300781 0.78125 -3.21875 C 0.78125 -3.101562 0.785156 -3.023438 0.796875 -2.984375 C 0.816406 -2.941406 0.851562 -2.941406 0.90625 -2.984375 C 0.957031 -3.035156 1.046875 -3.148438 1.171875 -3.328125 C 1.367188 -3.640625 1.617188 -3.90625 1.921875 -4.125 C 2.191406 -4.3125 2.492188 -4.390625 2.828125 -4.359375 C 3.109375 -4.335938 3.296875 -4.191406 3.390625 -3.921875 C 3.429688 -3.785156 3.453125 -3.644531 3.453125 -3.5 C 3.453125 -3.363281 3.441406 -3.226562 3.421875 -3.09375 C 3.421875 -2.945312 3.410156 -2.800781 3.390625 -2.65625 C 3.378906 -2.613281 3.375 -2.566406 3.375 -2.515625 C 3.320312 -2.003906 3.332031 -1.660156 3.40625 -1.484375 C 3.488281 -1.316406 3.609375 -1.257812 3.765625 -1.3125 C 3.929688 -1.375 4.148438 -1.625 4.421875 -2.0625 Z M 4.421875 -2.0625 "/></g></g></g><g fill="#0c2d57" fill-opacity="1"><g transform="translate(88.538365, 44.325034)"><g><path d="M 6.046875 -2.75 C 5.953125 -2.445312 5.757812 -2.101562 5.46875 -1.71875 C 5.1875 -1.332031 4.828125 -1.082031 4.390625 -0.96875 C 3.953125 -0.863281 3.570312 -0.878906 3.25 -1.015625 C 2.9375 -1.160156 2.765625 -1.539062 2.734375 -2.15625 C 2.367188 -1.457031 2.019531 -1.007812 1.6875 -0.8125 C 1.363281 -0.613281 1.03125 -0.535156 0.6875 -0.578125 C 0.28125 -0.648438 0.0078125 -0.804688 -0.125 -1.046875 C -0.269531 -1.296875 -0.316406 -1.582031 -0.265625 -1.90625 C -0.222656 -2.226562 -0.128906 -2.535156 0.015625 -2.828125 C 0.140625 -3.054688 0.304688 -3.265625 0.515625 -3.453125 C 0.722656 -3.640625 0.941406 -3.785156 1.171875 -3.890625 C 1.453125 -4.035156 1.734375 -4.101562 2.015625 -4.09375 C 2.304688 -4.09375 2.613281 -4 2.9375 -3.8125 C 2.945312 -3.800781 2.953125 -3.804688 2.953125 -3.828125 C 2.953125 -3.867188 2.957031 -3.910156 2.96875 -3.953125 C 2.988281 -4.003906 3.015625 -4.046875 3.046875 -4.078125 C 3.160156 -4.148438 3.289062 -4.1875 3.4375 -4.1875 C 3.582031 -4.1875 3.691406 -4.113281 3.765625 -3.96875 C 3.785156 -3.78125 3.769531 -3.539062 3.71875 -3.25 C 3.59375 -2.601562 3.585938 -2.140625 3.703125 -1.859375 C 3.828125 -1.578125 4.035156 -1.445312 4.328125 -1.46875 C 4.628906 -1.488281 5.015625 -1.78125 5.484375 -2.34375 C 5.960938 -2.914062 6.148438 -3.050781 6.046875 -2.75 Z M 0.78125 -1.25 C 0.945312 -1.125 1.132812 -1.132812 1.34375 -1.28125 C 1.5625 -1.4375 1.769531 -1.648438 1.96875 -1.921875 C 2.164062 -2.203125 2.328125 -2.476562 2.453125 -2.75 C 2.585938 -3.03125 2.664062 -3.234375 2.6875 -3.359375 C 2.28125 -3.578125 1.929688 -3.613281 1.640625 -3.46875 C 1.359375 -3.332031 1.132812 -3.101562 0.96875 -2.78125 C 0.800781 -2.457031 0.703125 -2.144531 0.671875 -1.84375 C 0.640625 -1.539062 0.675781 -1.34375 0.78125 -1.25 Z M 0.78125 -1.25 "/></g></g></g><g fill="#0c2d57" fill-opacity="1"><g transform="translate(94.214092, 44.325034)"><g/></g></g><g fill="#0c2d57" fill-opacity="1"><g transform="translate(96.934157, 44.325034)"><g><path d="M 20.8125 -15.203125 C 21.332031 -14.785156 21.753906 -14.300781 22.078125 -13.75 C 22.410156 -13.207031 22.632812 -12.601562 22.75 -11.9375 C 22.8125 -11.582031 22.820312 -11.238281 22.78125 -10.90625 C 22.75 -10.570312 22.691406 -10.238281 22.609375 -9.90625 C 22.472656 -9.351562 22.273438 -8.828125 22.015625 -8.328125 C 21.765625 -7.835938 21.46875 -7.367188 21.125 -6.921875 C 20.664062 -6.335938 20.15625 -5.816406 19.59375 -5.359375 C 19.03125 -4.910156 18.429688 -4.5 17.796875 -4.125 C 16.453125 -3.34375 15.046875 -2.707031 13.578125 -2.21875 C 13.472656 -2.175781 13.363281 -2.132812 13.25 -2.09375 C 13.101562 -2.050781 13 -2.007812 12.9375 -1.96875 C 12.875 -1.9375 12.832031 -1.882812 12.8125 -1.8125 C 12.800781 -1.738281 12.796875 -1.628906 12.796875 -1.484375 C 12.796875 0.378906 12.789062 2.238281 12.78125 4.09375 C 12.78125 4.332031 12.78125 4.570312 12.78125 4.8125 C 12.78125 4.832031 12.78125 4.84375 12.78125 4.84375 C 12.78125 4.976562 12.78125 5.109375 12.78125 5.234375 C 12.78125 5.367188 12.757812 5.5 12.71875 5.625 C 12.65625 5.832031 12.523438 5.929688 12.328125 5.921875 C 12.148438 5.921875 12.03125 5.832031 11.96875 5.65625 C 11.894531 5.375 11.863281 5.082031 11.875 4.78125 C 11.875 4.5 11.875 4.21875 11.875 3.9375 C 11.875 2.351562 11.875 0.769531 11.875 -0.8125 C 11.875 -0.875 11.875 -0.9375 11.875 -1 C 11.894531 -1.1875 11.878906 -1.390625 11.828125 -1.609375 C 11.710938 -1.597656 11.613281 -1.578125 11.53125 -1.546875 C 11.382812 -1.515625 11.242188 -1.507812 11.109375 -1.53125 C 11.054688 -1.53125 11.007812 -1.539062 10.96875 -1.5625 C 10.9375 -1.582031 10.914062 -1.625 10.90625 -1.6875 C 10.90625 -1.789062 10.953125 -1.859375 11.046875 -1.890625 C 11.234375 -1.972656 11.425781 -2.039062 11.625 -2.09375 C 11.800781 -2.15625 11.882812 -2.273438 11.875 -2.453125 C 11.875 -2.566406 11.875 -2.679688 11.875 -2.796875 C 11.875 -2.859375 11.875 -2.925781 11.875 -3 C 11.875 -3.945312 11.875 -4.894531 11.875 -5.84375 C 11.882812 -7.945312 11.890625 -10.054688 11.890625 -12.171875 C 11.890625 -12.191406 11.890625 -12.21875 11.890625 -12.25 C 11.890625 -12.40625 11.894531 -12.554688 11.90625 -12.703125 C 11.925781 -12.984375 12.070312 -13.125 12.34375 -13.125 C 12.613281 -13.113281 12.757812 -12.972656 12.78125 -12.703125 C 12.789062 -12.566406 12.789062 -12.429688 12.78125 -12.296875 C 12.78125 -12.253906 12.78125 -12.207031 12.78125 -12.15625 C 12.78125 -11.5 12.78125 -10.84375 12.78125 -10.1875 C 12.789062 -7.90625 12.796875 -5.617188 12.796875 -3.328125 C 12.796875 -3.273438 12.796875 -3.21875 12.796875 -3.15625 C 12.785156 -2.96875 12.800781 -2.78125 12.84375 -2.59375 C 12.882812 -2.550781 12.925781 -2.535156 12.96875 -2.546875 C 13.019531 -2.554688 13.0625 -2.570312 13.09375 -2.59375 C 14.195312 -3 15.253906 -3.484375 16.265625 -4.046875 C 17.273438 -4.609375 18.21875 -5.273438 19.09375 -6.046875 C 20.238281 -7.046875 21.046875 -8.269531 21.515625 -9.71875 C 21.753906 -10.53125 21.820312 -11.28125 21.71875 -11.96875 C 21.613281 -12.65625 21.367188 -13.269531 20.984375 -13.8125 C 20.609375 -14.351562 20.128906 -14.816406 19.546875 -15.203125 C 18.535156 -15.867188 17.335938 -16.28125 15.953125 -16.4375 C 14.566406 -16.59375 13.113281 -16.539062 11.59375 -16.28125 C 10.070312 -16.019531 8.601562 -15.597656 7.1875 -15.015625 C 5.78125 -14.429688 4.546875 -13.734375 3.484375 -12.921875 C 2.421875 -12.109375 1.648438 -11.222656 1.171875 -10.265625 C 1.054688 -10.078125 0.972656 -9.878906 0.921875 -9.671875 C 0.878906 -9.472656 0.882812 -9.257812 0.9375 -9.03125 C 0.96875 -8.90625 0.945312 -8.8125 0.875 -8.75 C 0.8125 -8.6875 0.71875 -8.664062 0.59375 -8.6875 C 0.34375 -8.71875 0.171875 -8.847656 0.078125 -9.078125 C 0.00390625 -9.273438 -0.0078125 -9.476562 0.03125 -9.6875 C 0.125 -10.09375 0.285156 -10.460938 0.515625 -10.796875 C 1.273438 -11.910156 2.332031 -12.894531 3.6875 -13.75 C 5.039062 -14.613281 6.539062 -15.316406 8.1875 -15.859375 C 9.84375 -16.410156 11.492188 -16.765625 13.140625 -16.921875 C 14.796875 -17.085938 16.296875 -17.019531 17.640625 -16.71875 C 18.222656 -16.59375 18.78125 -16.40625 19.3125 -16.15625 C 19.84375 -15.90625 20.34375 -15.585938 20.8125 -15.203125 Z M 20.8125 -15.203125 "/></g></g></g><g fill="#0c2d57" fill-opacity="1"><g transform="translate(116.842037, 44.325034)"><g><path d="M 6.046875 -2.75 C 5.953125 -2.445312 5.757812 -2.101562 5.46875 -1.71875 C 5.1875 -1.332031 4.828125 -1.082031 4.390625 -0.96875 C 3.953125 -0.863281 3.570312 -0.878906 3.25 -1.015625 C 2.9375 -1.160156 2.765625 -1.539062 2.734375 -2.15625 C 2.367188 -1.457031 2.019531 -1.007812 1.6875 -0.8125 C 1.363281 -0.613281 1.03125 -0.535156 0.6875 -0.578125 C 0.28125 -0.648438 0.0078125 -0.804688 -0.125 -1.046875 C -0.269531 -1.296875 -0.316406 -1.582031 -0.265625 -1.90625 C -0.222656 -2.226562 -0.128906 -2.535156 0.015625 -2.828125 C 0.140625 -3.054688 0.304688 -3.265625 0.515625 -3.453125 C 0.722656 -3.640625 0.941406 -3.785156 1.171875 -3.890625 C 1.453125 -4.035156 1.734375 -4.101562 2.015625 -4.09375 C 2.304688 -4.09375 2.613281 -4 2.9375 -3.8125 C 2.945312 -3.800781 2.953125 -3.804688 2.953125 -3.828125 C 2.953125 -3.867188 2.957031 -3.910156 2.96875 -3.953125 C 2.988281 -4.003906 3.015625 -4.046875 3.046875 -4.078125 C 3.160156 -4.148438 3.289062 -4.1875 3.4375 -4.1875 C 3.582031 -4.1875 3.691406 -4.113281 3.765625 -3.96875 C 3.785156 -3.78125 3.769531 -3.539062 3.71875 -3.25 C 3.59375 -2.601562 3.585938 -2.140625 3.703125 -1.859375 C 3.828125 -1.578125 4.035156 -1.445312 4.328125 -1.46875 C 4.628906 -1.488281 5.015625 -1.78125 5.484375 -2.34375 C 5.960938 -2.914062 6.148438 -3.050781 6.046875 -2.75 Z M 0.78125 -1.25 C 0.945312 -1.125 1.132812 -1.132812 1.34375 -1.28125 C 1.5625 -1.4375 1.769531 -1.648438 1.96875 -1.921875 C 2.164062 -2.203125 2.328125 -2.476562 2.453125 -2.75 C 2.585938 -3.03125 2.664062 -3.234375 2.6875 -3.359375 C 2.28125 -3.578125 1.929688 -3.613281 1.640625 -3.46875 C 1.359375 -3.332031 1.132812 -3.101562 0.96875 -2.78125 C 0.800781 -2.457031 0.703125 -2.144531 0.671875 -1.84375 C 0.640625 -1.539062 0.675781 -1.34375 0.78125 -1.25 Z M 0.78125 -1.25 "/></g></g></g><g fill="#0c2d57" fill-opacity="1"><g transform="translate(122.517764, 44.325034)"><g><path d="M 3.421875 -2.5625 C 3.484375 -2.707031 3.523438 -2.773438 3.546875 -2.765625 C 3.578125 -2.753906 3.585938 -2.695312 3.578125 -2.59375 C 3.566406 -2.488281 3.546875 -2.375 3.515625 -2.25 C 3.460938 -2.050781 3.378906 -1.820312 3.265625 -1.5625 C 3.148438 -1.300781 3.023438 -1.066406 2.890625 -0.859375 C 2.679688 -0.566406 2.421875 -0.34375 2.109375 -0.1875 C 1.804688 -0.0390625 1.53125 -0.00390625 1.28125 -0.078125 C 1.039062 -0.160156 0.898438 -0.394531 0.859375 -0.78125 C 0.847656 -1.113281 0.875 -1.476562 0.9375 -1.875 C 0.957031 -2.03125 0.984375 -2.1875 1.015625 -2.34375 C 1.015625 -2.40625 1 -2.453125 0.96875 -2.484375 C 0.9375 -2.515625 0.898438 -2.523438 0.859375 -2.515625 C 0.828125 -2.515625 0.789062 -2.515625 0.75 -2.515625 C 0.550781 -2.484375 0.351562 -2.488281 0.15625 -2.53125 C -0.09375 -2.601562 -0.234375 -2.722656 -0.265625 -2.890625 C -0.304688 -3.054688 -0.304688 -3.28125 -0.265625 -3.5625 C -0.234375 -3.75 -0.15625 -3.890625 -0.03125 -3.984375 C 0.0820312 -4.085938 0.222656 -4.132812 0.390625 -4.125 C 0.617188 -4.101562 0.726562 -4.015625 0.71875 -3.859375 C 0.707031 -3.703125 0.664062 -3.535156 0.59375 -3.359375 C 0.519531 -3.210938 0.476562 -3.085938 0.46875 -2.984375 C 0.46875 -2.890625 0.554688 -2.859375 0.734375 -2.890625 C 0.765625 -2.898438 0.804688 -2.910156 0.859375 -2.921875 C 0.921875 -2.953125 0.992188 -2.976562 1.078125 -3 C 1.160156 -3.019531 1.265625 -3.023438 1.390625 -3.015625 C 1.554688 -3.003906 1.660156 -2.929688 1.703125 -2.796875 C 1.753906 -2.660156 1.773438 -2.488281 1.765625 -2.28125 C 1.765625 -2.070312 1.75 -1.859375 1.71875 -1.640625 C 1.675781 -1.378906 1.65625 -1.148438 1.65625 -0.953125 C 1.65625 -0.765625 1.710938 -0.65625 1.828125 -0.625 C 1.972656 -0.582031 2.191406 -0.710938 2.484375 -1.015625 C 2.773438 -1.328125 3.085938 -1.84375 3.421875 -2.5625 Z M 3.421875 -2.5625 "/></g></g></g><g fill="#0c2d57" fill-opacity="1"><g transform="translate(125.794693, 44.325034)"><g><path d="M 8.40625 -2.609375 C 8.4375 -2.671875 8.484375 -2.703125 8.546875 -2.703125 C 8.617188 -2.710938 8.675781 -2.675781 8.71875 -2.59375 C 8.738281 -2.570312 8.722656 -2.507812 8.671875 -2.40625 C 8.617188 -2.3125 8.546875 -2.203125 8.453125 -2.078125 C 8.367188 -1.953125 8.285156 -1.835938 8.203125 -1.734375 C 8.128906 -1.628906 8.078125 -1.5625 8.046875 -1.53125 C 7.691406 -1.144531 7.335938 -0.859375 6.984375 -0.671875 C 6.628906 -0.484375 6.238281 -0.441406 5.8125 -0.546875 C 5.394531 -0.660156 4.929688 -0.960938 4.421875 -1.453125 C 4.335938 -1.535156 4.257812 -1.617188 4.1875 -1.703125 C 4.164062 -1.722656 4.144531 -1.742188 4.125 -1.765625 C 4.039062 -1.867188 3.945312 -1.882812 3.84375 -1.8125 C 3.726562 -1.726562 3.617188 -1.648438 3.515625 -1.578125 C 3.421875 -1.503906 3.320312 -1.4375 3.21875 -1.375 C 2.882812 -1.144531 2.535156 -0.953125 2.171875 -0.796875 C 1.773438 -0.617188 1.363281 -0.550781 0.9375 -0.59375 C 0.257812 -0.675781 -0.09375 -1.050781 -0.125 -1.71875 C -0.125 -2.1875 -0.0195312 -2.609375 0.1875 -2.984375 C 0.394531 -3.359375 0.6875 -3.632812 1.0625 -3.8125 C 1.4375 -3.988281 1.863281 -4.019531 2.34375 -3.90625 C 2.394531 -3.894531 2.46875 -3.878906 2.5625 -3.859375 C 2.613281 -3.835938 2.679688 -3.820312 2.765625 -3.8125 C 2.710938 -3.925781 2.664062 -4.023438 2.625 -4.109375 C 2.550781 -4.253906 2.488281 -4.382812 2.4375 -4.5 C 2.113281 -5.164062 1.847656 -5.925781 1.640625 -6.78125 C 1.441406 -7.644531 1.34375 -8.523438 1.34375 -9.421875 C 1.351562 -10.328125 1.503906 -11.171875 1.796875 -11.953125 C 2.097656 -12.734375 2.59375 -13.375 3.28125 -13.875 C 3.726562 -14.175781 4.179688 -14.335938 4.640625 -14.359375 C 5.109375 -14.378906 5.550781 -14.273438 5.96875 -14.046875 C 6.382812 -13.828125 6.722656 -13.488281 6.984375 -13.03125 C 7.328125 -12.394531 7.535156 -11.726562 7.609375 -11.03125 C 7.753906 -9.90625 7.726562 -8.851562 7.53125 -7.875 C 7.34375 -6.90625 7.007812 -5.988281 6.53125 -5.125 C 6.0625 -4.257812 5.457031 -3.414062 4.71875 -2.59375 C 4.644531 -2.519531 4.601562 -2.457031 4.59375 -2.40625 C 4.59375 -2.363281 4.628906 -2.300781 4.703125 -2.21875 C 4.847656 -2.019531 5.007812 -1.828125 5.1875 -1.640625 C 5.363281 -1.453125 5.5625 -1.296875 5.78125 -1.171875 C 6.09375 -1.035156 6.421875 -1.03125 6.765625 -1.15625 C 7.117188 -1.289062 7.441406 -1.492188 7.734375 -1.765625 C 8.035156 -2.035156 8.257812 -2.316406 8.40625 -2.609375 Z M 3.15625 -2.140625 C 3.238281 -2.222656 3.242188 -2.3125 3.171875 -2.40625 C 3.117188 -2.46875 3.070312 -2.53125 3.03125 -2.59375 C 2.90625 -2.75 2.757812 -2.910156 2.59375 -3.078125 C 2.425781 -3.242188 2.253906 -3.367188 2.078125 -3.453125 C 1.898438 -3.535156 1.722656 -3.539062 1.546875 -3.46875 C 1.296875 -3.351562 1.085938 -3.144531 0.921875 -2.84375 C 0.765625 -2.550781 0.671875 -2.242188 0.640625 -1.921875 C 0.609375 -1.609375 0.664062 -1.367188 0.8125 -1.203125 C 0.96875 -1.046875 1.226562 -1.03125 1.59375 -1.15625 C 2.15625 -1.40625 2.675781 -1.734375 3.15625 -2.140625 Z M 4.34375 -3.296875 C 5.09375 -4.191406 5.65625 -5.066406 6.03125 -5.921875 C 6.40625 -6.785156 6.65625 -7.796875 6.78125 -8.953125 C 6.820312 -9.234375 6.835938 -9.601562 6.828125 -10.0625 C 6.828125 -10.519531 6.785156 -10.992188 6.703125 -11.484375 C 6.628906 -11.984375 6.488281 -12.4375 6.28125 -12.84375 C 6.082031 -13.257812 5.800781 -13.554688 5.4375 -13.734375 C 5.070312 -13.910156 4.601562 -13.910156 4.03125 -13.734375 C 3.40625 -13.367188 2.941406 -12.878906 2.640625 -12.265625 C 2.335938 -11.660156 2.160156 -10.984375 2.109375 -10.234375 C 2.066406 -9.484375 2.113281 -8.71875 2.25 -7.9375 C 2.394531 -7.164062 2.59375 -6.429688 2.84375 -5.734375 C 3.101562 -5.035156 3.375 -4.425781 3.65625 -3.90625 C 3.695312 -3.84375 3.734375 -3.78125 3.765625 -3.71875 C 3.847656 -3.507812 3.972656 -3.316406 4.140625 -3.140625 C 4.160156 -3.160156 4.179688 -3.179688 4.203125 -3.203125 C 4.253906 -3.234375 4.300781 -3.265625 4.34375 -3.296875 Z M 4.34375 -3.296875 "/></g></g></g><g fill="#0c2d57" fill-opacity="1"><g transform="translate(134.147649, 44.325034)"><g><path d="M 4.109375 -2.921875 C 4.160156 -2.984375 4.1875 -2.921875 4.1875 -2.734375 C 4.195312 -2.546875 4.03125 -2.285156 3.6875 -1.953125 C 3.351562 -1.628906 3.007812 -1.476562 2.65625 -1.5 C 2.570312 -1.5 2.503906 -1.488281 2.453125 -1.46875 C 2.398438 -1.457031 2.351562 -1.414062 2.3125 -1.34375 C 2.269531 -1.28125 2.222656 -1.21875 2.171875 -1.15625 C 2.171875 -1.15625 2.164062 -1.15625 2.15625 -1.15625 C 1.9375 -0.914062 1.675781 -0.757812 1.375 -0.6875 C 1.082031 -0.613281 0.800781 -0.632812 0.53125 -0.75 C 0.257812 -0.875 0.0664062 -1.109375 -0.046875 -1.453125 C -0.128906 -1.753906 -0.132812 -2.054688 -0.0625 -2.359375 C -0.0078125 -2.628906 0.0820312 -2.878906 0.21875 -3.109375 C 0.382812 -3.429688 0.597656 -3.65625 0.859375 -3.78125 C 1.128906 -3.914062 1.425781 -3.988281 1.75 -4 C 2.25 -4.019531 2.5625 -3.785156 2.6875 -3.296875 C 2.769531 -3.015625 2.789062 -2.734375 2.75 -2.453125 C 2.738281 -2.378906 2.722656 -2.3125 2.703125 -2.25 C 2.691406 -2.195312 2.679688 -2.148438 2.671875 -2.109375 C 2.660156 -1.953125 2.726562 -1.878906 2.875 -1.890625 C 3.289062 -1.960938 3.703125 -2.304688 4.109375 -2.921875 Z M 1.203125 -1.109375 C 1.453125 -1.222656 1.628906 -1.421875 1.734375 -1.703125 C 1.304688 -1.972656 1.023438 -2.359375 0.890625 -2.859375 C 0.753906 -2.617188 0.671875 -2.34375 0.640625 -2.03125 C 0.609375 -1.71875 0.640625 -1.457031 0.734375 -1.25 C 0.828125 -1.050781 0.984375 -1.003906 1.203125 -1.109375 Z M 1.921875 -2.265625 C 1.992188 -2.359375 2.035156 -2.476562 2.046875 -2.625 C 2.054688 -2.769531 2.046875 -2.914062 2.015625 -3.0625 C 1.992188 -3.207031 1.957031 -3.320312 1.90625 -3.40625 C 1.863281 -3.488281 1.8125 -3.515625 1.75 -3.484375 C 1.65625 -3.398438 1.601562 -3.273438 1.59375 -3.109375 C 1.582031 -2.953125 1.601562 -2.789062 1.65625 -2.625 C 1.71875 -2.46875 1.804688 -2.347656 1.921875 -2.265625 Z M 1.921875 -2.265625 "/></g></g></g><path stroke-linecap="butt" transform="matrix(0, -0.75, 0.75, 0, 50.645695, 53.249256)" fill="none" stroke-linejoin="miter" d="M -0.000992292 0.498448 L 64.957344 0.498448 " stroke="#c19b29" stroke-width="1" stroke-opacity="1" stroke-miterlimit="4"/></svg>