<svg xmlns="http://www.w3.org/2000/svg" xmlns:xlink="http://www.w3.org/1999/xlink" width="500" zoomAndPan="magnify" viewBox="0 0 375 374.999991" height="500" preserveAspectRatio="xMidYMid meet" version="1.0"><defs><g/><clipPath id="ce1f8f75c7"><path d="M 25 44 L 346 44 L 346 336 L 25 336 Z M 25 44 " clip-rule="nonzero"/></clipPath><clipPath id="c8ff4270ef"><path d="M 0 271.625 L 277.386719 9.347656 L 367.046875 104.171875 L 89.660156 366.449219 Z M 0 271.625 " clip-rule="nonzero"/></clipPath><clipPath id="7298fb3bce"><path d="M 0 271.625 L 277.386719 9.347656 L 367.046875 104.171875 L 89.660156 366.449219 Z M 0 271.625 " clip-rule="nonzero"/></clipPath></defs><rect x="-37.5" width="450" fill="#ffffff" y="-37.499999" height="449.999989" fill-opacity="1"/><rect x="-37.5" width="450" fill="#0c2d57" y="-37.499999" height="449.999989" fill-opacity="1"/><g fill="#c19b29" fill-opacity="1"><g transform="translate(61.190626, 193.478283)"><g><path d="M 3.953125 -131.640625 L 39.5 -131.640625 L 39.5 -130.328125 C 35.71875 -130.328125 32.972656 -129.1875 31.265625 -126.90625 C 29.554688 -124.625 28.476562 -120.914062 28.03125 -115.78125 C 27.59375 -110.644531 27.375 -103.734375 27.375 -95.046875 L 27.375 -1.3125 L 44.09375 -1.3125 C 46.207031 -1.3125 48.953125 -1.378906 52.328125 -1.515625 C 55.703125 -1.648438 59.363281 -1.9375 63.3125 -2.375 C 67.269531 -2.8125 71.195312 -3.488281 75.09375 -4.40625 C 79 -5.332031 82.597656 -6.539062 85.890625 -8.03125 C 89.179688 -9.519531 91.8125 -11.382812 93.78125 -13.625 C 95.757812 -15.863281 96.75 -18.5625 96.75 -21.71875 L 98.078125 -21.71875 L 98.078125 0 L 3.953125 0 L 3.953125 -1.3125 C 7.722656 -1.3125 10.460938 -2.453125 12.171875 -4.734375 C 13.890625 -7.015625 14.96875 -10.742188 15.40625 -15.921875 C 15.84375 -21.109375 16.0625 -28 16.0625 -36.59375 L 16.0625 -95.046875 C 16.0625 -103.734375 15.84375 -110.644531 15.40625 -115.78125 C 14.96875 -120.914062 13.890625 -124.625 12.171875 -126.90625 C 10.460938 -129.1875 7.722656 -130.328125 3.953125 -130.328125 Z M 3.953125 -131.640625 "/></g></g></g><g fill="#c19b29" fill-opacity="1"><g transform="translate(216.574657, 327.237104)"><g><path d="M 3.953125 -130.328125 L 3.953125 -131.640625 L 19.75 -131.640625 C 24.570312 -131.640625 28.976562 -131.859375 32.96875 -132.296875 C 36.96875 -132.734375 41.003906 -133.171875 45.078125 -133.609375 C 49.160156 -134.054688 53.75 -134.28125 58.84375 -134.28125 C 68.226562 -134.28125 76.164062 -132.476562 82.65625 -128.875 C 89.15625 -125.28125 94.09375 -120.390625 97.46875 -114.203125 C 100.851562 -108.015625 102.546875 -101.015625 102.546875 -93.203125 C 102.546875 -87.847656 101.578125 -82.691406 99.640625 -77.734375 C 97.710938 -72.773438 94.835938 -68.34375 91.015625 -64.4375 C 87.203125 -60.53125 82.488281 -57.4375 76.875 -55.15625 C 71.257812 -52.875 64.8125 -51.734375 57.53125 -51.734375 C 53.664062 -51.734375 49.757812 -52.082031 45.8125 -52.78125 C 41.863281 -53.488281 38.265625 -54.320312 35.015625 -55.28125 C 31.765625 -56.25 29.175781 -57.128906 27.25 -57.921875 L 27.25 -36.59375 C 27.25 -28 27.46875 -21.109375 27.90625 -15.921875 C 28.34375 -10.742188 29.414062 -7.015625 31.125 -4.734375 C 32.84375 -2.453125 35.585938 -1.3125 39.359375 -1.3125 L 39.359375 0 L 3.953125 0 L 3.953125 -1.3125 C 7.722656 -1.3125 10.460938 -2.453125 12.171875 -4.734375 C 13.890625 -7.015625 14.96875 -10.742188 15.40625 -15.921875 C 15.84375 -21.109375 16.0625 -28 16.0625 -36.59375 L 16.0625 -95.046875 C 16.0625 -103.734375 15.84375 -110.644531 15.40625 -115.78125 C 14.96875 -120.914062 13.890625 -124.625 12.171875 -126.90625 C 10.460938 -129.1875 7.722656 -130.328125 3.953125 -130.328125 Z M 27.25 -59.234375 C 30.582031 -57.828125 34.640625 -56.664062 39.421875 -55.75 C 44.203125 -54.832031 49.445312 -54.375 55.15625 -54.375 C 61.738281 -54.375 67.3125 -55.625 71.875 -58.125 C 76.4375 -60.625 80.144531 -63.847656 83 -67.796875 C 85.851562 -71.742188 87.9375 -75.953125 89.25 -80.421875 C 90.570312 -84.898438 91.234375 -89.113281 91.234375 -93.0625 C 91.234375 -101.050781 89.609375 -107.984375 86.359375 -113.859375 C 83.109375 -119.742188 78.5 -124.3125 72.53125 -127.5625 C 66.5625 -130.8125 59.5 -132.4375 51.34375 -132.4375 C 46.507812 -132.4375 42.296875 -132.101562 38.703125 -131.4375 C 35.109375 -130.78125 31.289062 -129.707031 27.25 -128.21875 Z M 27.25 -59.234375 "/></g></g></g><path stroke-linecap="butt" transform="matrix(0, -0.75, 0.75, 0, 188.265299, 332.039743)" fill="none" stroke-linejoin="miter" d="M 0.000907328 2.500434 L 356.688431 2.500434 " stroke="#fafaff" stroke-width="5" stroke-opacity="1" stroke-miterlimit="4"/><g clip-path="url(#ce1f8f75c7)"><g clip-path="url(#c8ff4270ef)"><g clip-path="url(#7298fb3bce)"><path fill="#ffffff" d="M 71.585938 283.699219 C 66.871094 280.179688 62.359375 276.816406 57.59375 273.257812 C 57.644531 276.902344 57.695312 280.265625 57.746094 283.570312 C 59.609375 284.328125 67.691406 284.398438 71.585938 283.699219 Z M 62.675781 230.171875 C 58.980469 228.898438 54.578125 228.71875 51.214844 229.523438 C 42.542969 231.59375 39.285156 239.640625 40.558594 245.550781 C 46.921875 239.050781 54.035156 233.839844 62.675781 230.171875 Z M 64.957031 231.128906 C 64.234375 231.324219 63.976562 231.363281 63.738281 231.464844 C 55.792969 234.851562 48.558594 239.375 42.300781 245.539062 C 41 246.820312 40.601562 247.933594 41.167969 249.625 C 42.675781 254.132812 45.15625 258.003906 48.09375 261.574219 C 50.203125 264.136719 52.464844 266.578125 55.417969 268.792969 C 55.472656 267.78125 55.515625 267.070312 55.554688 266.363281 C 55.78125 262.421875 55.878906 258.480469 56.265625 254.546875 C 57.074219 246.304688 59.953125 238.617188 64.957031 231.128906 Z M 57.882812 286.316406 C 58.871094 294.097656 62.167969 300.234375 68.480469 304.410156 C 71.214844 306.214844 74.28125 307.269531 77.8125 306.875 C 80.402344 306.582031 82.675781 305.570312 84.5625 303.617188 C 86.5 301.617188 86.621094 298.875 84.914062 296.980469 C 83.628906 295.558594 82.269531 294.160156 81.222656 292.558594 C 79.792969 290.367188 77.945312 288.636719 75.941406 287.019531 C 74.859375 286.148438 73.738281 285.664062 72.183594 285.796875 C 69.164062 286.050781 66.144531 286.042969 63.125 286.144531 C 61.457031 286.199219 59.792969 286.253906 57.882812 286.316406 Z M 133.527344 236.660156 C 133.523438 236.070312 133.574219 235.675781 133.511719 235.308594 C 132.851562 231.558594 131.324219 228.246094 128.980469 225.359375 C 124.550781 219.90625 118.710938 216.535156 111.808594 214.78125 C 107.660156 213.726562 103.429688 212.902344 98.988281 213.863281 C 94.867188 214.75 90.75 215.71875 86.683594 216.910156 C 82.117188 218.25 77.886719 220.484375 74.132812 223.605469 C 72.941406 224.59375 71.648438 225.507812 70.855469 227.050781 C 94.050781 220.632812 114.800781 223.980469 133.527344 236.660156 Z M 132.96875 245.382812 C 130.402344 244.796875 127.992188 244.210938 125.566406 243.695312 C 118.261719 242.140625 110.859375 241.882812 103.296875 244.007812 C 99.863281 244.96875 96.609375 246.402344 93.34375 248.542969 C 100.5 255.253906 107.742188 261.621094 113.984375 269.132812 C 122.550781 262.769531 129.773438 255.746094 132.96875 245.382812 Z M 79.089844 283.039062 C 90.757812 281.195312 101.613281 277.097656 111.96875 270.453125 C 105.609375 262.875 98.582031 256.375 91.519531 249.996094 C 80.8125 256.128906 74.597656 272.589844 79.089844 283.039062 Z M 56.324219 286.195312 C 52.386719 285.957031 48.640625 286.03125 44.875 286.597656 C 42.378906 286.972656 39.957031 287.632812 37.710938 288.996094 C 33.777344 291.382812 32.523438 294.789062 34.035156 298.839844 C 35.234375 302.058594 37.507812 304.4375 40.210938 306.273438 C 50.402344 313.203125 62.039062 315.265625 74.765625 313.003906 C 78.3125 312.375 81.738281 310.96875 84.625 308.480469 C 85.785156 307.476562 86.882812 306.382812 87.109375 304.898438 C 85.863281 305.792969 84.707031 306.800781 83.410156 307.515625 C 78.914062 309.984375 74.519531 309.753906 70.277344 307.816406 C 65.570312 305.664062 62.394531 301.933594 59.835938 297.609375 C 57.808594 294.191406 56.75 290.375 56.324219 286.195312 Z M 133.375 242.546875 C 134.042969 240.832031 133.582031 239.839844 132.292969 238.886719 C 127.621094 235.417969 122.527344 232.671875 117.054688 230.53125 C 101.871094 224.605469 86.027344 224.617188 69.675781 229.304688 C 69.195312 229.441406 68.742188 229.722656 67.804688 230.152344 C 72.691406 232.234375 76.78125 234.757812 80.535156 237.746094 C 84.28125 240.726562 87.925781 243.824219 91.59375 246.847656 C 92.167969 246.527344 92.59375 246.308594 93.007812 246.054688 C 98.132812 242.914062 103.609375 241.058594 109.40625 240.355469 C 114.144531 239.777344 118.789062 240.078125 123.375 240.789062 C 126.695312 241.300781 129.984375 241.945312 133.375 242.546875 Z M 76.425781 283.234375 C 73.03125 269.308594 77.988281 257.882812 89.390625 248.433594 C 86.421875 244.109375 70.660156 232.546875 66.851562 231.90625 C 63.339844 237.183594 60.621094 242.769531 59.328125 248.898438 C 57.867188 255.84375 57.929688 262.777344 57.65625 269.714844 C 57.613281 270.832031 58.238281 271.40625 58.953125 271.941406 C 63.824219 275.605469 68.726562 279.242188 73.597656 282.90625 C 74.375 283.488281 75.191406 283.726562 76.425781 283.234375 Z M 113.273438 272.28125 C 108.078125 275.558594 102.75 278.339844 97.144531 280.480469 C 91.503906 282.632812 85.695312 283.996094 79.734375 285.097656 C 80.558594 287.347656 81.5625 289.109375 83.015625 290.617188 C 84.347656 292 85.5625 293.5 86.867188 294.914062 C 87.945312 296.082031 88.929688 297.390625 90.207031 298.316406 C 99.519531 305.074219 110.121094 307.472656 122.132812 304.933594 C 122.644531 304.824219 123.140625 304.597656 123.589844 304.441406 C 125.097656 295.058594 121.011719 281.859375 113.273438 272.28125 Z M 115.359375 270.867188 C 122.320312 280.449219 127.28125 290.769531 126.527344 303.511719 C 127.089844 303.339844 127.414062 303.265625 127.726562 303.144531 C 132.191406 301.335938 136.246094 298.785156 139.652344 295.304688 C 146.039062 288.773438 149.417969 281.050781 149.6875 272.300781 C 149.957031 263.667969 147.1875 256.15625 142.484375 249.414062 C 142.015625 248.734375 141.644531 247.761719 140.960938 247.496094 C 139.128906 246.777344 137.230469 246.109375 135.136719 245.992188 C 133.492188 251.28125 130.824219 255.832031 127.347656 260.007812 C 123.890625 264.160156 119.765625 267.550781 115.359375 270.867188 Z M 89.460938 300.867188 C 89.628906 305.324219 87.550781 308.367188 84.171875 310.667969 C 81.910156 312.210938 79.390625 313.113281 76.769531 313.71875 C 69.027344 315.503906 61.496094 315.234375 54.136719 313.351562 C 47.738281 311.71875 41.804688 309.238281 37.128906 304.605469 C 35.578125 303.066406 34.238281 301.390625 33.355469 299.324219 C 31.417969 294.765625 33.332031 289.882812 37.433594 287.621094 C 38.75 286.890625 40.148438 286.253906 41.566406 285.785156 C 44.921875 284.65625 48.359375 284.496094 51.789062 284.332031 C 52.96875 284.28125 54.148438 284.210938 55.308594 284.144531 C 55.347656 280.648438 55.265625 277.386719 55.457031 274.121094 C 55.578125 272.144531 55.027344 270.800781 53.546875 269.566406 C 49.839844 266.472656 46.667969 262.855469 43.957031 258.835938 C 41.929688 255.832031 40.421875 252.570312 39.261719 248.734375 C 37.753906 250.792969 36.335938 252.578125 35.085938 254.464844 C 27.347656 266.140625 25.023438 278.359375 28.617188 291.085938 C 30.820312 298.890625 34.707031 305.699219 39.882812 311.769531 C 48.304688 321.632812 58.894531 328.335938 71.621094 331.824219 C 81.429688 334.511719 91.5 334.652344 101.726562 331.097656 C 108.046875 328.898438 113.53125 325.386719 117.707031 319.925781 C 120.542969 316.214844 122.421875 312.132812 123.3125 307.480469 C 110.769531 309.96875 99.695312 307.492188 89.460938 300.867188 Z M 287.554688 101.082031 C 287.59375 99.515625 286.753906 98.699219 285.929688 97.902344 C 283.667969 95.714844 279.734375 95.171875 276.832031 96.617188 C 273.980469 98.03125 272.347656 101.015625 272.699219 104.265625 C 273.070312 107.644531 274.761719 110.289062 277.175781 112.414062 C 282.167969 116.816406 288.175781 118.640625 295.144531 117.34375 C 304.222656 115.65625 310.101562 107.425781 308.777344 98.53125 C 308.046875 93.609375 305.703125 89.597656 302.363281 86.175781 C 295.683594 79.324219 287.3125 76.203125 277.296875 76.917969 C 272.023438 77.296875 267.042969 78.824219 262.550781 82.132812 C 257.648438 85.742188 254.535156 90.449219 253.171875 96.15625 C 251.367188 103.769531 252.648438 110.820312 256.132812 117.246094 C 262.132812 128.308594 271.238281 135.738281 284.019531 138.082031 C 297.183594 140.5 308.71875 136.128906 317.894531 125.371094 C 327.242188 114.414062 328.496094 102.421875 324.007812 90.144531 C 321.632812 83.628906 317.394531 78.390625 312.339844 73.8125 C 306.578125 68.589844 300.070312 64.484375 292.625 61.804688 C 286.042969 59.433594 279.199219 58.179688 271.921875 59.050781 C 262.453125 60.1875 254.128906 64.179688 246.945312 70.933594 C 237.511719 79.808594 233.554688 90.484375 234.203125 102.601562 C 234.699219 111.910156 237.71875 120.320312 242.113281 128.160156 C 247.070312 136.996094 253.5625 144.460938 262.296875 149.738281 C 271.957031 155.566406 282.59375 158.007812 294.449219 155.710938 C 301.796875 154.285156 308.511719 151.105469 314.742188 146.726562 C 322.582031 141.214844 329.328125 134.582031 334.726562 126.679688 C 344.441406 112.460938 345.207031 98.101562 338.683594 83.738281 C 336.101562 78.050781 332.605469 72.992188 328.449219 68.390625 C 322.324219 61.613281 315.394531 55.832031 306.859375 52.15625 C 289.53125 44.6875 271.660156 45.609375 253.640625 54.140625 C 235.828125 62.578125 224.457031 76.660156 218.230469 94.917969 C 214.347656 106.308594 213.210938 117.855469 214.097656 129.382812 C 214.757812 137.960938 215.90625 146.464844 216.96875 154.976562 C 218.148438 164.421875 219.019531 173.910156 218.511719 183.566406 C 217.910156 194.949219 214.535156 205.757812 208.609375 215.949219 C 204.335938 223.3125 199.152344 229.988281 192.777344 235.773438 C 180.703125 246.71875 167.007812 251.195312 151.675781 249.289062 C 149.589844 249.03125 147.527344 248.671875 145.570312 248.378906 C 147.128906 251.667969 148.894531 254.8125 150.15625 258.183594 C 153.109375 266.085938 153.503906 274.359375 150.539062 282.839844 C 146.632812 294.03125 138.914062 301.664062 127.84375 305.933594 C 126.535156 306.441406 125.90625 307.003906 125.566406 308.417969 C 122.878906 319.585938 115.84375 327.285156 105.285156 331.835938 C 95.648438 335.992188 85.863281 336.5 76.125 334.542969 C 65.960938 332.5 57.027344 328.121094 49.011719 321.992188 C 45.363281 319.203125 42.023438 316.105469 39.117188 312.589844 C 33.347656 305.601562 29.070312 297.726562 27.039062 288.644531 C 24.261719 276.210938 27.101562 264.464844 34.523438 253.339844 C 35.601562 251.726562 36.78125 250.167969 38.019531 248.664062 C 38.738281 247.792969 38.996094 247 38.859375 245.914062 C 38.441406 242.574219 38.753906 239.230469 40.46875 236.074219 C 43.476562 230.542969 48.257812 227.9375 54.207031 227.421875 C 57.550781 227.132812 60.71875 227.710938 63.816406 228.640625 C 65.855469 229.253906 66.203125 229.152344 67.621094 227.402344 C 72.851562 220.925781 79.5625 216.648438 87.246094 214.269531 C 98.972656 210.644531 110.234375 211.25 120.714844 216.40625 C 126.546875 219.269531 131.214844 223.359375 133.980469 229.355469 C 135.101562 231.785156 135.84375 234.351562 135.996094 237.089844 C 136.066406 238.296875 136.460938 239.125 137.386719 239.898438 C 138.863281 241.128906 140.101562 242.628906 141.5 243.945312 C 141.992188 244.410156 142.605469 244.882812 143.261719 245.027344 C 150.757812 246.667969 158.347656 247.664062 166.273438 246.382812 C 173.476562 245.214844 180.117188 242.382812 185.992188 237.824219 C 203.722656 224.058594 213.574219 206.296875 215.816406 184.78125 C 216.65625 176.695312 216.097656 168.769531 215.226562 160.882812 C 214.339844 152.871094 213.265625 144.902344 212.328125 136.898438 C 211.074219 126.144531 211.152344 115.296875 213.09375 104.355469 C 215.195312 92.542969 219.871094 81.679688 227.46875 71.867188 C 245.796875 48.191406 278.8125 38.71875 304.265625 48.070312 C 311.492188 50.726562 317.855469 54.675781 323.597656 59.621094 C 329.636719 64.816406 334.765625 70.769531 338.8125 77.648438 C 342.808594 84.449219 345.390625 91.839844 345.734375 100.03125 C 346.132812 109.511719 343.511719 118.414062 338.066406 126.6875 C 329.796875 139.257812 319.160156 149.183594 305.351562 155.257812 C 292.226562 161.03125 279.425781 160.828125 267.105469 155.539062 C 257.964844 151.613281 250.707031 145.414062 244.835938 137.570312 C 238.597656 129.238281 234.183594 119.972656 232.140625 109.507812 C 230.550781 101.355469 230.808594 93.132812 234.023438 84.957031 C 237.777344 75.421875 244.394531 68.175781 253.160156 62.789062 C 264.550781 55.789062 276.382812 54.320312 288.480469 57.40625 C 297.574219 59.730469 305.542969 64.023438 312.585938 69.914062 C 318.679688 75.007812 323.605469 81.03125 326.628906 88.503906 C 331.082031 99.523438 330.628906 110.769531 324.050781 121.726562 C 316.238281 134.738281 304.625 141.359375 289.933594 141.6875 C 281.617188 141.878906 274.371094 139.042969 267.84375 134.632812 C 259.675781 129.113281 253.792969 121.738281 250.859375 112.109375 C 249.269531 106.90625 248.941406 101.511719 250.308594 95.957031 C 252.757812 86.007812 259.019531 79.355469 268.695312 75.90625 C 278.078125 72.566406 286.945312 73.460938 295.316406 77.441406 C 302.027344 80.625 307.054688 85.488281 310.023438 92.355469 C 311.328125 95.375 311.984375 98.566406 311.820312 101.960938 C 311.375 110.972656 304.910156 118.289062 295.710938 120.253906 C 286.550781 122.203125 276.339844 118.046875 271.777344 110.476562 C 270.203125 107.867188 269.417969 105.003906 269.972656 101.792969 C 270.636719 97.980469 272.851562 95.300781 276.484375 93.820312 C 281.308594 91.855469 286.636719 93.304688 289.410156 97.257812 C 290.410156 98.679688 290.878906 100.277344 290.539062 102.101562 C 290.113281 104.390625 288.226562 106.214844 286.105469 106.445312 C 284.894531 106.570312 283.855469 106.082031 283.484375 105.152344 C 283.0625 104.097656 283.527344 103.21875 284.320312 102.414062 C 285.222656 101.5 286.21875 100.832031 287.554688 101.082031 " fill-opacity="1" fill-rule="nonzero"/></g></g></g></svg>