<svg xmlns="http://www.w3.org/2000/svg" xmlns:xlink="http://www.w3.org/1999/xlink" width="170" zoomAndPan="magnify" viewBox="0 0 127.5 37.5" height="50" preserveAspectRatio="xMidYMid meet" version="1.0"><defs><g/><clipPath id="5b0dd3f211"><path d="M 5 2 L 41 2 L 41 35 L 5 35 Z M 5 2 " clip-rule="nonzero"/></clipPath><clipPath id="f145187ed9"><path d="M 2.21875 27.488281 L 32.875 -1.496094 L 42.535156 8.722656 L 11.882812 37.707031 Z M 2.21875 27.488281 " clip-rule="nonzero"/></clipPath><clipPath id="5bb0de85b5"><path d="M 2.21875 27.488281 L 32.875 -1.496094 L 42.535156 8.722656 L 11.882812 37.707031 Z M 2.21875 27.488281 " clip-rule="nonzero"/></clipPath><clipPath id="5a0ce4a443"><path d="M 44 0 L 46 0 L 46 37.007812 L 44 37.007812 Z M 44 0 " clip-rule="nonzero"/></clipPath></defs><g fill="#c19b29" fill-opacity="1"><g transform="translate(8.943995, 18.906473)"><g><path d="M 0.4375 -14.46875 L 4.34375 -14.46875 L 4.34375 -14.328125 C 3.925781 -14.328125 3.625 -14.203125 3.4375 -13.953125 C 3.25 -13.703125 3.128906 -13.289062 3.078125 -12.71875 C 3.035156 -12.15625 3.015625 -11.398438 3.015625 -10.453125 L 3.015625 -0.140625 L 4.84375 -0.140625 C 5.070312 -0.140625 5.375 -0.144531 5.75 -0.15625 C 6.125 -0.175781 6.523438 -0.207031 6.953125 -0.25 C 7.390625 -0.300781 7.820312 -0.378906 8.25 -0.484375 C 8.675781 -0.585938 9.070312 -0.71875 9.4375 -0.875 C 9.800781 -1.039062 10.09375 -1.242188 10.3125 -1.484375 C 10.53125 -1.734375 10.640625 -2.035156 10.640625 -2.390625 L 10.78125 -2.390625 L 10.78125 0 L 0.4375 0 L 0.4375 -0.140625 C 0.851562 -0.140625 1.15625 -0.265625 1.34375 -0.515625 C 1.53125 -0.765625 1.644531 -1.175781 1.6875 -1.75 C 1.738281 -2.320312 1.765625 -3.078125 1.765625 -4.015625 L 1.765625 -10.453125 C 1.765625 -11.398438 1.738281 -12.15625 1.6875 -12.71875 C 1.644531 -13.289062 1.53125 -13.703125 1.34375 -13.953125 C 1.15625 -14.203125 0.851562 -14.328125 0.4375 -14.328125 Z M 0.4375 -14.46875 "/></g></g></g><g fill="#c19b29" fill-opacity="1"><g transform="translate(26.017531, 33.603839)"><g><path d="M 0.4375 -14.328125 L 0.4375 -14.46875 L 2.171875 -14.46875 C 2.703125 -14.46875 3.1875 -14.488281 3.625 -14.53125 C 4.0625 -14.582031 4.503906 -14.632812 4.953125 -14.6875 C 5.398438 -14.738281 5.90625 -14.765625 6.46875 -14.765625 C 7.5 -14.765625 8.367188 -14.566406 9.078125 -14.171875 C 9.796875 -13.773438 10.335938 -13.234375 10.703125 -12.546875 C 11.078125 -11.867188 11.265625 -11.101562 11.265625 -10.25 C 11.265625 -9.65625 11.160156 -9.082031 10.953125 -8.53125 C 10.742188 -7.988281 10.425781 -7.503906 10 -7.078125 C 9.582031 -6.648438 9.066406 -6.3125 8.453125 -6.0625 C 7.835938 -5.8125 7.128906 -5.6875 6.328125 -5.6875 C 5.898438 -5.6875 5.46875 -5.722656 5.03125 -5.796875 C 4.601562 -5.878906 4.207031 -5.972656 3.84375 -6.078125 C 3.488281 -6.179688 3.207031 -6.273438 3 -6.359375 L 3 -4.015625 C 3 -3.078125 3.019531 -2.320312 3.0625 -1.75 C 3.113281 -1.175781 3.234375 -0.765625 3.421875 -0.515625 C 3.609375 -0.265625 3.910156 -0.140625 4.328125 -0.140625 L 4.328125 0 L 0.4375 0 L 0.4375 -0.140625 C 0.851562 -0.140625 1.15625 -0.265625 1.34375 -0.515625 C 1.53125 -0.765625 1.644531 -1.175781 1.6875 -1.75 C 1.738281 -2.320312 1.765625 -3.078125 1.765625 -4.015625 L 1.765625 -10.453125 C 1.765625 -11.398438 1.738281 -12.15625 1.6875 -12.71875 C 1.644531 -13.289062 1.53125 -13.703125 1.34375 -13.953125 C 1.15625 -14.203125 0.851562 -14.328125 0.4375 -14.328125 Z M 3 -6.515625 C 3.363281 -6.359375 3.804688 -6.226562 4.328125 -6.125 C 4.859375 -6.019531 5.4375 -5.96875 6.0625 -5.96875 C 6.78125 -5.96875 7.390625 -6.101562 7.890625 -6.375 C 8.398438 -6.65625 8.8125 -7.015625 9.125 -7.453125 C 9.4375 -7.890625 9.664062 -8.351562 9.8125 -8.84375 C 9.957031 -9.332031 10.03125 -9.796875 10.03125 -10.234375 C 10.03125 -11.109375 9.847656 -11.867188 9.484375 -12.515625 C 9.128906 -13.160156 8.625 -13.660156 7.96875 -14.015625 C 7.3125 -14.378906 6.535156 -14.5625 5.640625 -14.5625 C 5.109375 -14.5625 4.644531 -14.523438 4.25 -14.453125 C 3.851562 -14.378906 3.4375 -14.257812 3 -14.09375 Z M 3 -6.515625 "/></g></g></g><path stroke-linecap="butt" transform="matrix(0, -0.740132, 0.740132, 0, 22.738383, 34.127065)" fill="none" stroke-linejoin="miter" d="M -0.00248711 0.501252 L 39.71807 0.501252 " stroke="#ffffff" stroke-width="1" stroke-opacity="1" stroke-miterlimit="4"/><g fill="#c19b29" fill-opacity="1"><g transform="translate(49.815187, 10.000628)"><g><path d="M 1.109375 -2.59375 L 2.328125 -2.59375 C 2.628906 -2.59375 2.878906 -2.695312 3.078125 -2.90625 C 3.273438 -3.113281 3.375 -3.367188 3.375 -3.671875 C 3.375 -3.984375 3.28125 -4.234375 3.09375 -4.421875 C 2.90625 -4.617188 2.648438 -4.71875 2.328125 -4.71875 L 1.109375 -4.71875 Z M 3.921875 -3.65625 C 3.921875 -3.195312 3.757812 -2.816406 3.4375 -2.515625 C 3.113281 -2.222656 2.71875 -2.078125 2.25 -2.078125 L 1.109375 -2.078125 L 1.109375 0 L 0.578125 0 L 0.578125 -5.234375 L 2.25 -5.234375 C 2.71875 -5.234375 3.113281 -5.085938 3.4375 -4.796875 C 3.757812 -4.503906 3.921875 -4.125 3.921875 -3.65625 Z M 3.921875 -3.65625 "/></g></g></g><g fill="#c19b29" fill-opacity="1"><g transform="translate(54.777846, 10.000628)"><g><path d="M 1.078125 -0.484375 C 1.203125 -0.390625 1.375 -0.34375 1.59375 -0.34375 C 2.082031 -0.34375 2.328125 -0.53125 2.328125 -0.90625 C 2.328125 -1.113281 2.148438 -1.273438 1.796875 -1.390625 C 1.648438 -1.441406 1.492188 -1.488281 1.328125 -1.53125 C 1.148438 -1.570312 0.988281 -1.625 0.84375 -1.6875 C 0.664062 -1.769531 0.535156 -1.875 0.453125 -2 C 0.359375 -2.125 0.3125 -2.269531 0.3125 -2.4375 C 0.3125 -2.78125 0.429688 -3.035156 0.671875 -3.203125 C 0.910156 -3.378906 1.191406 -3.46875 1.515625 -3.46875 C 1.847656 -3.46875 2.117188 -3.398438 2.328125 -3.265625 C 2.546875 -3.128906 2.691406 -2.890625 2.765625 -2.546875 L 2.203125 -2.546875 C 2.140625 -2.734375 2.046875 -2.859375 1.921875 -2.921875 C 1.804688 -2.984375 1.664062 -3.015625 1.5 -3.015625 C 1.332031 -3.015625 1.191406 -2.976562 1.078125 -2.90625 C 0.953125 -2.832031 0.890625 -2.722656 0.890625 -2.578125 C 0.890625 -2.421875 0.941406 -2.304688 1.046875 -2.234375 C 1.140625 -2.171875 1.257812 -2.113281 1.40625 -2.0625 C 1.5625 -2.007812 1.722656 -1.96875 1.890625 -1.9375 C 2.066406 -1.894531 2.226562 -1.835938 2.375 -1.765625 C 2.726562 -1.597656 2.90625 -1.332031 2.90625 -0.96875 C 2.90625 -0.601562 2.773438 -0.332031 2.515625 -0.15625 C 2.378906 -0.0703125 2.234375 -0.0078125 2.078125 0.03125 C 1.921875 0.0703125 1.75 0.09375 1.5625 0.09375 C 0.78125 0.09375 0.328125 -0.253906 0.203125 -0.953125 L 0.78125 -0.953125 C 0.832031 -0.722656 0.929688 -0.566406 1.078125 -0.484375 Z M 1.078125 -0.484375 "/></g></g></g><g fill="#c19b29" fill-opacity="1"><g transform="translate(58.761935, 10.000628)"><g><path d="M 1.125 -4.5625 C 1.1875 -4.488281 1.21875 -4.410156 1.21875 -4.328125 C 1.21875 -4.222656 1.1875 -4.140625 1.125 -4.078125 C 1.0625 -4.003906 0.984375 -3.96875 0.890625 -3.96875 C 0.785156 -3.96875 0.703125 -4.003906 0.640625 -4.078125 C 0.578125 -4.140625 0.546875 -4.222656 0.546875 -4.328125 C 0.546875 -4.410156 0.578125 -4.488281 0.640625 -4.5625 C 0.703125 -4.625 0.785156 -4.65625 0.890625 -4.65625 C 0.984375 -4.65625 1.0625 -4.625 1.125 -4.5625 Z M 1.15625 0 L 0.609375 0 L 0.609375 -3.390625 L 1.15625 -3.390625 Z M 1.15625 0 "/></g></g></g><g fill="#c19b29" fill-opacity="1"><g transform="translate(61.413015, 10.000628)"><g><path d="M 3.75 -2.171875 L 3.15625 -2.171875 C 3.0625 -2.390625 2.921875 -2.566406 2.734375 -2.703125 C 2.535156 -2.828125 2.335938 -2.890625 2.140625 -2.890625 C 1.929688 -2.890625 1.757812 -2.859375 1.625 -2.796875 C 1.476562 -2.734375 1.351562 -2.648438 1.25 -2.546875 C 1.019531 -2.304688 0.90625 -2.019531 0.90625 -1.6875 C 0.90625 -1.363281 1.019531 -1.082031 1.25 -0.84375 C 1.476562 -0.601562 1.753906 -0.484375 2.078125 -0.484375 C 2.296875 -0.484375 2.5 -0.539062 2.6875 -0.65625 C 2.863281 -0.769531 3.003906 -0.921875 3.109375 -1.109375 L 3.71875 -1.109375 C 3.519531 -0.566406 3.148438 -0.203125 2.609375 -0.015625 C 2.441406 0.046875 2.25 0.078125 2.03125 0.078125 C 1.8125 0.078125 1.597656 0.03125 1.390625 -0.0625 C 1.179688 -0.15625 1 -0.285156 0.84375 -0.453125 C 0.507812 -0.804688 0.34375 -1.21875 0.34375 -1.6875 C 0.34375 -2.175781 0.507812 -2.59375 0.84375 -2.9375 C 1.1875 -3.28125 1.597656 -3.453125 2.078125 -3.453125 C 2.472656 -3.453125 2.828125 -3.332031 3.140625 -3.09375 C 3.429688 -2.863281 3.632812 -2.554688 3.75 -2.171875 Z M 3.75 -2.171875 "/></g></g></g><g fill="#c19b29" fill-opacity="1"><g transform="translate(66.314031, 10.000628)"><g><path d="M 3.34375 -1.703125 C 3.34375 -2.046875 3.222656 -2.335938 2.984375 -2.578125 C 2.742188 -2.816406 2.457031 -2.9375 2.125 -2.9375 C 1.78125 -2.9375 1.488281 -2.816406 1.25 -2.578125 C 1.007812 -2.335938 0.890625 -2.046875 0.890625 -1.703125 C 0.890625 -1.367188 1.007812 -1.082031 1.25 -0.84375 C 1.488281 -0.601562 1.78125 -0.484375 2.125 -0.484375 C 2.457031 -0.484375 2.742188 -0.601562 2.984375 -0.84375 C 3.222656 -1.082031 3.34375 -1.367188 3.34375 -1.703125 Z M 3.890625 -1.703125 C 3.890625 -1.210938 3.71875 -0.800781 3.375 -0.46875 C 3.019531 -0.125 2.601562 0.046875 2.125 0.046875 C 1.632812 0.046875 1.21875 -0.125 0.875 -0.46875 C 0.519531 -0.800781 0.34375 -1.210938 0.34375 -1.703125 C 0.34375 -2.191406 0.519531 -2.613281 0.875 -2.96875 C 1.21875 -3.3125 1.632812 -3.484375 2.125 -3.484375 C 2.601562 -3.484375 3.019531 -3.3125 3.375 -2.96875 C 3.71875 -2.613281 3.890625 -2.191406 3.890625 -1.703125 Z M 3.21875 -5.25 L 2.375 -4.140625 L 1.9375 -4.140625 L 2.5625 -5.25 Z M 3.21875 -5.25 "/></g></g></g><g fill="#c19b29" fill-opacity="1"><g transform="translate(71.438502, 10.000628)"><g><path d="M 1.109375 0 L 0.578125 0 L 0.578125 -5.78125 L 1.109375 -5.78125 Z M 1.109375 0 "/></g></g></g><g fill="#c19b29" fill-opacity="1"><g transform="translate(74.020234, 10.000628)"><g><path d="M 3.34375 -1.703125 C 3.34375 -2.046875 3.222656 -2.335938 2.984375 -2.578125 C 2.742188 -2.816406 2.457031 -2.9375 2.125 -2.9375 C 1.78125 -2.9375 1.488281 -2.816406 1.25 -2.578125 C 1.007812 -2.335938 0.890625 -2.046875 0.890625 -1.703125 C 0.890625 -1.367188 1.007812 -1.082031 1.25 -0.84375 C 1.488281 -0.601562 1.78125 -0.484375 2.125 -0.484375 C 2.457031 -0.484375 2.742188 -0.601562 2.984375 -0.84375 C 3.222656 -1.082031 3.34375 -1.367188 3.34375 -1.703125 Z M 3.890625 -1.703125 C 3.890625 -1.210938 3.71875 -0.800781 3.375 -0.46875 C 3.019531 -0.125 2.601562 0.046875 2.125 0.046875 C 1.632812 0.046875 1.21875 -0.125 0.875 -0.46875 C 0.519531 -0.800781 0.34375 -1.210938 0.34375 -1.703125 C 0.34375 -2.191406 0.519531 -2.613281 0.875 -2.96875 C 1.21875 -3.3125 1.632812 -3.484375 2.125 -3.484375 C 2.601562 -3.484375 3.019531 -3.3125 3.375 -2.96875 C 3.71875 -2.613281 3.890625 -2.191406 3.890625 -1.703125 Z M 3.890625 -1.703125 "/></g></g></g><g fill="#c19b29" fill-opacity="1"><g transform="translate(79.144705, 10.000628)"><g><path d="M 3.3125 -1.6875 C 3.3125 -2.019531 3.203125 -2.3125 2.984375 -2.5625 C 2.753906 -2.800781 2.46875 -2.921875 2.125 -2.921875 C 1.800781 -2.921875 1.519531 -2.800781 1.28125 -2.5625 C 1.050781 -2.320312 0.9375 -2.03125 0.9375 -1.6875 C 0.9375 -1.351562 1.050781 -1.066406 1.28125 -0.828125 C 1.519531 -0.585938 1.800781 -0.46875 2.125 -0.46875 C 2.46875 -0.46875 2.753906 -0.585938 2.984375 -0.828125 C 3.203125 -1.078125 3.3125 -1.363281 3.3125 -1.6875 Z M 0.921875 0.46875 C 0.972656 0.675781 1.082031 0.863281 1.25 1.03125 C 1.488281 1.269531 1.773438 1.390625 2.109375 1.390625 C 2.441406 1.390625 2.726562 1.269531 2.96875 1.03125 C 3.195312 0.789062 3.3125 0.503906 3.3125 0.171875 L 3.3125 -0.5625 C 3.289062 -0.53125 3.265625 -0.5 3.234375 -0.46875 C 2.910156 -0.101562 2.515625 0.078125 2.046875 0.078125 C 1.578125 0.078125 1.179688 -0.101562 0.859375 -0.46875 C 0.546875 -0.8125 0.390625 -1.21875 0.390625 -1.6875 C 0.390625 -2.164062 0.546875 -2.578125 0.859375 -2.921875 C 1.179688 -3.285156 1.578125 -3.46875 2.046875 -3.46875 C 2.503906 -3.46875 2.898438 -3.285156 3.234375 -2.921875 C 3.265625 -2.890625 3.289062 -2.851562 3.3125 -2.8125 L 3.3125 -3.390625 L 3.859375 -3.390625 L 3.859375 0.171875 C 3.859375 0.648438 3.6875 1.0625 3.34375 1.40625 C 3 1.75 2.585938 1.921875 2.109375 1.921875 C 1.617188 1.921875 1.203125 1.75 0.859375 1.40625 C 0.585938 1.132812 0.425781 0.820312 0.375 0.46875 Z M 0.921875 0.46875 "/></g></g></g><g fill="#c19b29" fill-opacity="1"><g transform="translate(84.469512, 10.000628)"><g><path d="M 3.28125 -1.6875 C 3.28125 -2.019531 3.164062 -2.3125 2.9375 -2.5625 C 2.707031 -2.800781 2.421875 -2.921875 2.078125 -2.921875 C 1.742188 -2.921875 1.460938 -2.800781 1.234375 -2.5625 C 1.003906 -2.3125 0.890625 -2.019531 0.890625 -1.6875 C 0.890625 -1.363281 1.003906 -1.078125 1.234375 -0.828125 C 1.460938 -0.585938 1.742188 -0.46875 2.078125 -0.46875 C 2.421875 -0.46875 2.707031 -0.585938 2.9375 -0.828125 C 3.164062 -1.078125 3.28125 -1.363281 3.28125 -1.6875 Z M 3.8125 0 L 3.28125 0 L 3.28125 -0.578125 C 3.25 -0.535156 3.21875 -0.5 3.1875 -0.46875 C 2.863281 -0.101562 2.46875 0.078125 2 0.078125 C 1.53125 0.078125 1.132812 -0.101562 0.8125 -0.46875 C 0.5 -0.8125 0.34375 -1.21875 0.34375 -1.6875 C 0.34375 -2.164062 0.5 -2.578125 0.8125 -2.921875 C 1.132812 -3.285156 1.53125 -3.46875 2 -3.46875 C 2.46875 -3.46875 2.863281 -3.285156 3.1875 -2.921875 C 3.21875 -2.890625 3.25 -2.851562 3.28125 -2.8125 L 3.28125 -3.390625 L 3.8125 -3.390625 Z M 3.8125 0 "/></g></g></g><g fill="#c19b29" fill-opacity="1"><g transform="translate(92.715084, 10.000628)"><g><path d="M 5.390625 -1.609375 C 5.191406 -1.097656 4.867188 -0.691406 4.421875 -0.390625 C 3.984375 -0.078125 3.492188 0.078125 2.953125 0.078125 C 2.234375 0.078125 1.613281 -0.1875 1.09375 -0.71875 C 0.59375 -1.25 0.34375 -1.878906 0.34375 -2.609375 C 0.34375 -2.972656 0.410156 -3.320312 0.546875 -3.65625 C 0.679688 -3.976562 0.863281 -4.257812 1.09375 -4.5 C 1.613281 -5.039062 2.234375 -5.3125 2.953125 -5.3125 C 3.492188 -5.3125 3.984375 -5.160156 4.421875 -4.859375 C 4.859375 -4.546875 5.175781 -4.140625 5.375 -3.640625 L 4.78125 -3.640625 C 4.5 -4.160156 4.078125 -4.503906 3.515625 -4.671875 C 3.335938 -4.722656 3.125 -4.75 2.875 -4.75 C 2.632812 -4.75 2.390625 -4.691406 2.140625 -4.578125 C 1.890625 -4.460938 1.671875 -4.304688 1.484375 -4.109375 C 1.085938 -3.691406 0.890625 -3.191406 0.890625 -2.609375 C 0.890625 -2.023438 1.085938 -1.523438 1.484375 -1.109375 C 1.890625 -0.691406 2.378906 -0.484375 2.953125 -0.484375 C 3.347656 -0.484375 3.707031 -0.582031 4.03125 -0.78125 C 4.351562 -0.988281 4.609375 -1.265625 4.796875 -1.609375 Z M 5.390625 -1.609375 "/></g></g></g><g fill="#c19b29" fill-opacity="1"><g transform="translate(99.218797, 10.000628)"><g><path d="M 1.109375 0 L 0.578125 0 L 0.578125 -5.78125 L 1.109375 -5.78125 Z M 1.109375 0 "/></g></g></g><g fill="#c19b29" fill-opacity="1"><g transform="translate(101.80053, 10.000628)"><g><path d="M 1.15625 0 L 0.609375 0 L 0.609375 -3.390625 L 1.15625 -3.390625 Z M 2.046875 -5.25 L 1.1875 -4.140625 L 0.765625 -4.140625 L 1.375 -5.25 Z M 2.046875 -5.25 "/></g></g></g><g fill="#c19b29" fill-opacity="1"><g transform="translate(104.451609, 10.000628)"><g><path d="M 2.921875 0 L 2.921875 -2.125 C 2.921875 -2.34375 2.867188 -2.53125 2.765625 -2.6875 C 2.671875 -2.84375 2.503906 -2.921875 2.265625 -2.921875 C 2.035156 -2.921875 1.847656 -2.875 1.703125 -2.78125 C 1.566406 -2.695312 1.453125 -2.585938 1.359375 -2.453125 C 1.191406 -2.191406 1.109375 -1.847656 1.109375 -1.421875 L 1.109375 0 L 0.578125 0 L 0.578125 -3.390625 L 1.109375 -3.390625 L 1.109375 -2.796875 C 1.222656 -2.992188 1.367188 -3.15625 1.546875 -3.28125 C 1.734375 -3.394531 1.945312 -3.453125 2.1875 -3.453125 C 2.425781 -3.453125 2.617188 -3.421875 2.765625 -3.359375 C 2.921875 -3.285156 3.050781 -3.191406 3.15625 -3.078125 C 3.351562 -2.835938 3.453125 -2.519531 3.453125 -2.125 L 3.453125 0 Z M 2.921875 0 "/></g></g></g><g fill="#c19b29" fill-opacity="1"><g transform="translate(109.260165, 10.000628)"><g><path d="M 1.125 -4.5625 C 1.1875 -4.488281 1.21875 -4.410156 1.21875 -4.328125 C 1.21875 -4.222656 1.1875 -4.140625 1.125 -4.078125 C 1.0625 -4.003906 0.984375 -3.96875 0.890625 -3.96875 C 0.785156 -3.96875 0.703125 -4.003906 0.640625 -4.078125 C 0.578125 -4.140625 0.546875 -4.222656 0.546875 -4.328125 C 0.546875 -4.410156 0.578125 -4.488281 0.640625 -4.5625 C 0.703125 -4.625 0.785156 -4.65625 0.890625 -4.65625 C 0.984375 -4.65625 1.0625 -4.625 1.125 -4.5625 Z M 1.15625 0 L 0.609375 0 L 0.609375 -3.390625 L 1.15625 -3.390625 Z M 1.15625 0 "/></g></g></g><g fill="#c19b29" fill-opacity="1"><g transform="translate(111.911245, 10.000628)"><g><path d="M 3.75 -2.171875 L 3.15625 -2.171875 C 3.0625 -2.390625 2.921875 -2.566406 2.734375 -2.703125 C 2.535156 -2.828125 2.335938 -2.890625 2.140625 -2.890625 C 1.929688 -2.890625 1.757812 -2.859375 1.625 -2.796875 C 1.476562 -2.734375 1.351562 -2.648438 1.25 -2.546875 C 1.019531 -2.304688 0.90625 -2.019531 0.90625 -1.6875 C 0.90625 -1.363281 1.019531 -1.082031 1.25 -0.84375 C 1.476562 -0.601562 1.753906 -0.484375 2.078125 -0.484375 C 2.296875 -0.484375 2.5 -0.539062 2.6875 -0.65625 C 2.863281 -0.769531 3.003906 -0.921875 3.109375 -1.109375 L 3.71875 -1.109375 C 3.519531 -0.566406 3.148438 -0.203125 2.609375 -0.015625 C 2.441406 0.046875 2.25 0.078125 2.03125 0.078125 C 1.8125 0.078125 1.597656 0.03125 1.390625 -0.0625 C 1.179688 -0.15625 1 -0.285156 0.84375 -0.453125 C 0.507812 -0.804688 0.34375 -1.21875 0.34375 -1.6875 C 0.34375 -2.175781 0.507812 -2.59375 0.84375 -2.9375 C 1.1875 -3.28125 1.597656 -3.453125 2.078125 -3.453125 C 2.472656 -3.453125 2.828125 -3.332031 3.140625 -3.09375 C 3.429688 -2.863281 3.632812 -2.554688 3.75 -2.171875 Z M 3.75 -2.171875 "/></g></g></g><g fill="#c19b29" fill-opacity="1"><g transform="translate(116.812261, 10.000628)"><g><path d="M 3.28125 -1.6875 C 3.28125 -2.019531 3.164062 -2.3125 2.9375 -2.5625 C 2.707031 -2.800781 2.421875 -2.921875 2.078125 -2.921875 C 1.742188 -2.921875 1.460938 -2.800781 1.234375 -2.5625 C 1.003906 -2.3125 0.890625 -2.019531 0.890625 -1.6875 C 0.890625 -1.363281 1.003906 -1.078125 1.234375 -0.828125 C 1.460938 -0.585938 1.742188 -0.46875 2.078125 -0.46875 C 2.421875 -0.46875 2.707031 -0.585938 2.9375 -0.828125 C 3.164062 -1.078125 3.28125 -1.363281 3.28125 -1.6875 Z M 3.8125 0 L 3.28125 0 L 3.28125 -0.578125 C 3.25 -0.535156 3.21875 -0.5 3.1875 -0.46875 C 2.863281 -0.101562 2.46875 0.078125 2 0.078125 C 1.53125 0.078125 1.132812 -0.101562 0.8125 -0.46875 C 0.5 -0.8125 0.34375 -1.21875 0.34375 -1.6875 C 0.34375 -2.164062 0.5 -2.578125 0.8125 -2.921875 C 1.132812 -3.285156 1.53125 -3.46875 2 -3.46875 C 2.46875 -3.46875 2.863281 -3.285156 3.1875 -2.921875 C 3.21875 -2.890625 3.25 -2.851562 3.28125 -2.8125 L 3.28125 -3.390625 L 3.8125 -3.390625 Z M 3.8125 0 "/></g></g></g><path stroke-linecap="butt" transform="matrix(0.740126, -0.00273698, 0.00273698, 0.740126, 48.93283, 14.045846)" fill="none" stroke-linejoin="miter" d="M -0.000807605 0.497502 L 97.981802 0.500949 " stroke="#ffffff" stroke-width="1" stroke-opacity="1" stroke-miterlimit="4"/><g clip-path="url(#5b0dd3f211)"><g clip-path="url(#f145187ed9)"><g clip-path="url(#5bb0de85b5)"><path fill="#ffffff" d="M 10.085938 28.816406 C 9.566406 28.429688 9.070312 28.058594 8.546875 27.667969 C 8.554688 28.070312 8.558594 28.4375 8.5625 28.800781 C 8.769531 28.882812 9.65625 28.890625 10.085938 28.816406 Z M 9.105469 22.933594 C 8.699219 22.796875 8.214844 22.773438 7.847656 22.863281 C 6.894531 23.089844 6.535156 23.976562 6.675781 24.625 C 7.375 23.910156 8.15625 23.339844 9.105469 22.933594 Z M 9.355469 23.039062 C 9.277344 23.0625 9.25 23.066406 9.222656 23.078125 C 8.347656 23.449219 7.554688 23.945312 6.867188 24.625 C 6.722656 24.765625 6.679688 24.886719 6.742188 25.070312 C 6.910156 25.566406 7.179688 25.992188 7.503906 26.386719 C 7.734375 26.667969 7.984375 26.933594 8.308594 27.179688 C 8.3125 27.066406 8.320312 26.988281 8.324219 26.910156 C 8.347656 26.476562 8.359375 26.046875 8.402344 25.613281 C 8.488281 24.707031 8.804688 23.863281 9.355469 23.039062 Z M 8.578125 29.101562 C 8.6875 29.957031 9.050781 30.632812 9.742188 31.089844 C 10.042969 31.289062 10.378906 31.40625 10.769531 31.359375 C 11.054688 31.328125 11.300781 31.21875 11.511719 31.003906 C 11.722656 30.785156 11.734375 30.480469 11.546875 30.273438 C 11.40625 30.117188 11.257812 29.964844 11.144531 29.789062 C 10.984375 29.546875 10.78125 29.359375 10.5625 29.179688 C 10.445312 29.085938 10.320312 29.03125 10.148438 29.046875 C 9.816406 29.074219 9.488281 29.074219 9.15625 29.085938 C 8.972656 29.089844 8.789062 29.097656 8.578125 29.101562 Z M 16.890625 23.648438 C 16.886719 23.582031 16.894531 23.539062 16.886719 23.5 C 16.816406 23.085938 16.648438 22.722656 16.390625 22.40625 C 15.902344 21.808594 15.261719 21.4375 14.503906 21.246094 C 14.046875 21.128906 13.582031 21.039062 13.09375 21.144531 C 12.640625 21.242188 12.1875 21.347656 11.742188 21.476562 C 11.242188 21.625 10.777344 21.871094 10.363281 22.214844 C 10.234375 22.320312 10.089844 22.421875 10.003906 22.59375 C 12.550781 21.886719 14.832031 22.253906 16.890625 23.648438 Z M 16.828125 24.605469 C 16.546875 24.542969 16.28125 24.476562 16.015625 24.421875 C 15.210938 24.25 14.398438 24.222656 13.566406 24.453125 C 13.191406 24.5625 12.832031 24.71875 12.472656 24.953125 C 13.261719 25.691406 14.054688 26.390625 14.742188 27.214844 C 15.683594 26.515625 16.476562 25.746094 16.828125 24.605469 Z M 10.910156 28.742188 C 12.191406 28.539062 13.382812 28.089844 14.519531 27.359375 C 13.820312 26.527344 13.050781 25.8125 12.273438 25.113281 C 11.097656 25.785156 10.414062 27.59375 10.910156 28.742188 Z M 8.40625 29.089844 C 7.976562 29.0625 7.5625 29.070312 7.148438 29.132812 C 6.875 29.175781 6.609375 29.246094 6.363281 29.398438 C 5.929688 29.660156 5.792969 30.035156 5.960938 30.480469 C 6.089844 30.832031 6.339844 31.09375 6.636719 31.296875 C 7.757812 32.058594 9.035156 32.28125 10.433594 32.035156 C 10.824219 31.964844 11.199219 31.8125 11.515625 31.539062 C 11.644531 31.425781 11.765625 31.308594 11.789062 31.144531 C 11.652344 31.242188 11.527344 31.351562 11.382812 31.433594 C 10.890625 31.703125 10.40625 31.675781 9.941406 31.464844 C 9.421875 31.226562 9.074219 30.820312 8.792969 30.34375 C 8.570312 29.96875 8.453125 29.546875 8.40625 29.089844 Z M 16.871094 24.292969 C 16.945312 24.105469 16.894531 23.996094 16.753906 23.890625 C 16.238281 23.511719 15.679688 23.210938 15.078125 22.976562 C 13.410156 22.324219 11.671875 22.324219 9.875 22.839844 C 9.820312 22.855469 9.773438 22.886719 9.667969 22.933594 C 10.207031 23.160156 10.65625 23.4375 11.066406 23.765625 C 11.480469 24.09375 11.878906 24.433594 12.28125 24.765625 C 12.34375 24.730469 12.390625 24.707031 12.4375 24.679688 C 13 24.335938 13.601562 24.132812 14.238281 24.054688 C 14.757812 23.988281 15.269531 24.023438 15.773438 24.101562 C 16.136719 24.15625 16.5 24.230469 16.871094 24.292969 Z M 10.617188 28.765625 C 10.242188 27.234375 10.789062 25.980469 12.039062 24.941406 C 11.714844 24.464844 9.984375 23.195312 9.5625 23.125 C 9.179688 23.707031 8.878906 24.320312 8.738281 24.992188 C 8.578125 25.753906 8.585938 26.515625 8.554688 27.277344 C 8.550781 27.402344 8.617188 27.464844 8.695312 27.523438 C 9.230469 27.925781 9.769531 28.324219 10.304688 28.726562 C 10.390625 28.792969 10.480469 28.816406 10.617188 28.765625 Z M 14.664062 27.5625 C 14.09375 27.921875 13.507812 28.226562 12.890625 28.460938 C 12.273438 28.699219 11.632812 28.847656 10.980469 28.96875 C 11.070312 29.214844 11.179688 29.410156 11.339844 29.574219 C 11.488281 29.726562 11.621094 29.890625 11.761719 30.046875 C 11.882812 30.175781 11.988281 30.320312 12.128906 30.421875 C 13.152344 31.164062 14.316406 31.425781 15.636719 31.148438 C 15.691406 31.136719 15.746094 31.109375 15.796875 31.09375 C 15.960938 30.0625 15.515625 28.613281 14.664062 27.5625 Z M 14.894531 27.40625 C 15.65625 28.457031 16.203125 29.59375 16.121094 30.992188 C 16.179688 30.972656 16.21875 30.964844 16.25 30.953125 C 16.742188 30.753906 17.1875 30.472656 17.5625 30.089844 C 18.261719 29.371094 18.632812 28.523438 18.664062 27.5625 C 18.695312 26.613281 18.390625 25.789062 17.871094 25.046875 C 17.820312 24.972656 17.78125 24.867188 17.707031 24.839844 C 17.503906 24.757812 17.296875 24.6875 17.066406 24.671875 C 16.882812 25.253906 16.59375 25.753906 16.210938 26.210938 C 15.828125 26.667969 15.375 27.042969 14.894531 27.40625 Z M 12.046875 30.703125 C 12.066406 31.191406 11.839844 31.527344 11.46875 31.777344 C 11.21875 31.949219 10.941406 32.046875 10.652344 32.113281 C 9.804688 32.308594 8.976562 32.28125 8.167969 32.074219 C 7.464844 31.894531 6.8125 31.621094 6.300781 31.113281 C 6.128906 30.941406 5.980469 30.757812 5.882812 30.53125 C 5.671875 30.03125 5.882812 29.496094 6.332031 29.246094 C 6.476562 29.167969 6.628906 29.097656 6.785156 29.042969 C 7.15625 28.921875 7.53125 28.902344 7.910156 28.886719 C 8.039062 28.878906 8.167969 28.871094 8.296875 28.863281 C 8.300781 28.480469 8.292969 28.121094 8.3125 27.761719 C 8.324219 27.546875 8.265625 27.398438 8.101562 27.261719 C 7.695312 26.921875 7.347656 26.527344 7.050781 26.082031 C 6.828125 25.753906 6.660156 25.394531 6.535156 24.972656 C 6.367188 25.199219 6.210938 25.398438 6.074219 25.605469 C 5.222656 26.886719 4.96875 28.230469 5.363281 29.625 C 5.605469 30.484375 6.03125 31.230469 6.601562 31.898438 C 7.527344 32.984375 8.691406 33.71875 10.089844 34.101562 C 11.164062 34.398438 12.273438 34.414062 13.394531 34.023438 C 14.089844 33.78125 14.691406 33.394531 15.152344 32.796875 C 15.460938 32.386719 15.667969 31.9375 15.765625 31.429688 C 14.390625 31.699219 13.171875 31.429688 12.046875 30.703125 Z M 33.808594 8.753906 C 33.8125 8.582031 33.722656 8.492188 33.632812 8.40625 C 33.382812 8.164062 32.949219 8.105469 32.632812 8.261719 C 32.316406 8.417969 32.140625 8.746094 32.175781 9.105469 C 32.21875 9.476562 32.402344 9.765625 32.667969 10 C 33.21875 10.480469 33.878906 10.683594 34.644531 10.539062 C 35.640625 10.355469 36.285156 9.449219 36.140625 8.472656 C 36.0625 7.933594 35.804688 7.492188 35.4375 7.117188 C 34.703125 6.363281 33.78125 6.019531 32.683594 6.101562 C 32.101562 6.140625 31.554688 6.308594 31.0625 6.671875 C 30.523438 7.070312 30.183594 7.585938 30.03125 8.214844 C 29.832031 9.050781 29.972656 9.824219 30.359375 10.53125 C 31.015625 11.746094 32.015625 12.5625 33.421875 12.820312 C 34.867188 13.085938 36.132812 12.605469 37.140625 11.421875 C 38.167969 10.21875 38.308594 8.902344 37.8125 7.550781 C 37.554688 6.835938 37.085938 6.261719 36.53125 5.757812 C 35.898438 5.183594 35.183594 4.734375 34.367188 4.4375 C 33.644531 4.179688 32.890625 4.039062 32.09375 4.136719 C 31.050781 4.261719 30.136719 4.699219 29.347656 5.441406 C 28.3125 6.417969 27.878906 7.589844 27.949219 8.921875 C 28.003906 9.945312 28.335938 10.867188 28.816406 11.726562 C 29.363281 12.699219 30.074219 13.519531 31.035156 14.097656 C 32.097656 14.738281 33.265625 15.007812 34.566406 14.753906 C 35.375 14.597656 36.113281 14.25 36.796875 13.769531 C 37.65625 13.164062 38.398438 12.433594 38.992188 11.566406 C 40.058594 10.003906 40.144531 8.425781 39.425781 6.847656 C 39.140625 6.222656 38.757812 5.667969 38.300781 5.164062 C 37.628906 4.417969 36.867188 3.78125 35.929688 3.378906 C 34.027344 2.558594 32.0625 2.660156 30.082031 3.597656 C 28.125 4.523438 26.878906 6.070312 26.195312 8.078125 C 25.765625 9.328125 25.640625 10.597656 25.738281 11.863281 C 25.8125 12.804688 25.9375 13.738281 26.054688 14.675781 C 26.183594 15.710938 26.28125 16.753906 26.226562 17.816406 C 26.160156 19.066406 25.789062 20.253906 25.136719 21.371094 C 24.667969 22.179688 24.097656 22.914062 23.398438 23.550781 C 22.070312 24.753906 20.566406 25.246094 18.882812 25.035156 C 18.652344 25.007812 18.425781 24.96875 18.210938 24.933594 C 18.382812 25.296875 18.578125 25.640625 18.714844 26.011719 C 19.039062 26.878906 19.082031 27.789062 18.757812 28.722656 C 18.328125 29.949219 17.480469 30.789062 16.265625 31.257812 C 16.121094 31.3125 16.050781 31.375 16.015625 31.53125 C 15.71875 32.757812 14.945312 33.601562 13.785156 34.101562 C 12.726562 34.558594 11.652344 34.617188 10.582031 34.402344 C 9.464844 34.175781 8.484375 33.695312 7.605469 33.023438 C 7.203125 32.714844 6.835938 32.375 6.515625 31.988281 C 5.882812 31.222656 5.414062 30.355469 5.191406 29.359375 C 4.886719 27.992188 5.199219 26.703125 6.011719 25.480469 C 6.132812 25.304688 6.261719 25.132812 6.398438 24.964844 C 6.476562 24.871094 6.503906 24.785156 6.488281 24.664062 C 6.441406 24.296875 6.476562 23.929688 6.667969 23.582031 C 6.996094 22.976562 7.519531 22.691406 8.175781 22.632812 C 8.542969 22.601562 8.890625 22.664062 9.230469 22.765625 C 9.453125 22.835938 9.492188 22.824219 9.648438 22.628906 C 10.222656 21.917969 10.960938 21.449219 11.804688 21.1875 C 13.09375 20.789062 14.328125 20.855469 15.480469 21.421875 C 16.121094 21.738281 16.636719 22.1875 16.9375 22.84375 C 17.0625 23.113281 17.144531 23.394531 17.160156 23.695312 C 17.167969 23.828125 17.210938 23.917969 17.3125 24.003906 C 17.476562 24.136719 17.609375 24.304688 17.765625 24.449219 C 17.820312 24.5 17.886719 24.550781 17.957031 24.566406 C 18.78125 24.746094 19.617188 24.855469 20.484375 24.714844 C 21.277344 24.585938 22.007812 24.277344 22.652344 23.777344 C 24.601562 22.261719 25.683594 20.3125 25.929688 17.949219 C 26.019531 17.0625 25.960938 16.191406 25.863281 15.324219 C 25.765625 14.445312 25.648438 13.566406 25.546875 12.6875 C 25.40625 11.507812 25.417969 10.316406 25.628906 9.113281 C 25.859375 7.816406 26.375 6.621094 27.207031 5.542969 C 29.222656 2.945312 32.847656 1.902344 35.644531 2.929688 C 36.4375 3.222656 37.136719 3.65625 37.769531 4.199219 C 38.433594 4.769531 38.996094 5.425781 39.441406 6.179688 C 39.878906 6.925781 40.164062 7.738281 40.199219 8.636719 C 40.246094 9.679688 39.957031 10.65625 39.359375 11.566406 C 38.449219 12.949219 37.28125 14.039062 35.765625 14.707031 C 34.324219 15.339844 32.917969 15.316406 31.5625 14.738281 C 30.558594 14.304688 29.761719 13.625 29.117188 12.761719 C 28.429688 11.847656 27.945312 10.828125 27.722656 9.679688 C 27.546875 8.785156 27.574219 7.882812 27.929688 6.984375 C 28.339844 5.933594 29.066406 5.140625 30.03125 4.546875 C 31.28125 3.777344 32.582031 3.617188 33.910156 3.957031 C 34.910156 4.210938 35.785156 4.683594 36.558594 5.328125 C 37.230469 5.890625 37.769531 6.550781 38.101562 7.371094 C 38.589844 8.582031 38.542969 9.816406 37.820312 11.023438 C 36.960938 12.449219 35.683594 13.179688 34.070312 13.214844 C 33.15625 13.234375 32.359375 12.925781 31.644531 12.441406 C 30.746094 11.832031 30.101562 11.023438 29.777344 9.964844 C 29.605469 9.394531 29.566406 8.800781 29.71875 8.191406 C 29.988281 7.097656 30.675781 6.367188 31.738281 5.988281 C 32.769531 5.621094 33.742188 5.71875 34.660156 6.15625 C 35.398438 6.507812 35.953125 7.039062 36.277344 7.796875 C 36.421875 8.128906 36.492188 8.476562 36.476562 8.851562 C 36.425781 9.839844 35.714844 10.644531 34.707031 10.859375 C 33.699219 11.074219 32.578125 10.617188 32.074219 9.785156 C 31.902344 9.5 31.816406 9.183594 31.878906 8.832031 C 31.949219 8.414062 32.195312 8.117188 32.59375 7.957031 C 33.125 7.742188 33.707031 7.898438 34.011719 8.332031 C 34.125 8.488281 34.175781 8.664062 34.136719 8.867188 C 34.089844 9.117188 33.882812 9.316406 33.648438 9.34375 C 33.515625 9.355469 33.402344 9.304688 33.363281 9.203125 C 33.316406 9.085938 33.367188 8.988281 33.453125 8.902344 C 33.554688 8.800781 33.664062 8.726562 33.808594 8.753906 " fill-opacity="1" fill-rule="nonzero"/></g></g></g><g fill="#c19b29" fill-opacity="1"><g transform="translate(52.658401, 31.549418)"><g><path d="M 7.5625 -2.671875 C 7.632812 -2.679688 7.707031 -2.6875 7.78125 -2.6875 C 7.863281 -2.6875 7.941406 -2.664062 8.015625 -2.625 C 8.023438 -2.613281 8.035156 -2.59375 8.046875 -2.5625 C 8.054688 -2.53125 8.066406 -2.5 8.078125 -2.46875 C 8.078125 -2.457031 8.066406 -2.441406 8.046875 -2.421875 C 8.035156 -2.410156 8.023438 -2.398438 8.015625 -2.390625 C 7.984375 -2.367188 7.945312 -2.351562 7.90625 -2.34375 C 7.476562 -2.257812 7.078125 -2.113281 6.703125 -1.90625 C 6.335938 -1.707031 5.992188 -1.476562 5.671875 -1.21875 C 5.210938 -0.863281 4.789062 -0.472656 4.40625 -0.046875 C 4.03125 0.367188 3.671875 0.804688 3.328125 1.265625 C 2.691406 2.128906 2.097656 3.023438 1.546875 3.953125 C 1.421875 4.171875 1.289062 4.378906 1.15625 4.578125 C 1.132812 4.617188 1.109375 4.65625 1.078125 4.6875 C 1.023438 4.789062 0.960938 4.882812 0.890625 4.96875 C 0.691406 5.175781 0.460938 5.226562 0.203125 5.125 C 0.0976562 5.070312 0.0351562 5 0.015625 4.90625 C 0.00390625 4.8125 0.0078125 4.71875 0.03125 4.625 C 0.175781 3.3125 0.265625 2.003906 0.296875 0.703125 C 0.335938 -1.046875 0.367188 -2.796875 0.390625 -4.546875 C 0.410156 -6.304688 0.382812 -8.0625 0.3125 -9.8125 C 0.257812 -10.863281 0.195312 -11.914062 0.125 -12.96875 C 0.09375 -13.445312 0.0625 -13.929688 0.03125 -14.421875 C 0.03125 -14.460938 0.0234375 -14.5 0.015625 -14.53125 C 0.015625 -14.625 0.015625 -14.722656 0.015625 -14.828125 C 0.0234375 -14.984375 0.109375 -15.066406 0.265625 -15.078125 C 0.359375 -15.097656 0.441406 -15.085938 0.515625 -15.046875 C 0.585938 -15.015625 0.628906 -14.96875 0.640625 -14.90625 C 0.703125 -14.65625 0.75 -14.40625 0.78125 -14.15625 C 0.78125 -14.082031 0.78125 -14.007812 0.78125 -13.9375 C 0.882812 -12.570312 0.972656 -11.207031 1.046875 -9.84375 C 1.117188 -8.488281 1.148438 -7.128906 1.140625 -5.765625 C 1.140625 -4.410156 1.125 -3.054688 1.09375 -1.703125 C 1.070312 -0.585938 1.039062 0.523438 1 1.640625 C 1 1.898438 0.988281 2.160156 0.96875 2.421875 C 0.957031 2.566406 0.945312 2.710938 0.9375 2.859375 C 0.925781 2.984375 0.914062 3.113281 0.90625 3.25 C 0.90625 3.3125 0.90625 3.367188 0.90625 3.421875 C 0.925781 3.429688 0.941406 3.441406 0.953125 3.453125 C 0.972656 3.453125 0.992188 3.453125 1.015625 3.453125 C 1.046875 3.398438 1.078125 3.351562 1.109375 3.3125 C 1.203125 3.164062 1.296875 3.023438 1.390625 2.890625 C 2.003906 1.910156 2.679688 0.976562 3.421875 0.09375 C 3.796875 -0.351562 4.195312 -0.765625 4.625 -1.140625 C 5.0625 -1.523438 5.535156 -1.863281 6.046875 -2.15625 C 6.285156 -2.289062 6.523438 -2.40625 6.765625 -2.5 C 7.015625 -2.59375 7.28125 -2.648438 7.5625 -2.671875 Z M 7.5625 -2.671875 "/></g></g></g><g fill="#c19b29" fill-opacity="1"><g transform="translate(59.986448, 31.549418)"><g><path d="M 2.34375 -1.828125 C 2.25 -1.640625 2.085938 -1.425781 1.859375 -1.1875 C 1.640625 -0.957031 1.382812 -0.8125 1.09375 -0.75 C 0.8125 -0.6875 0.546875 -0.785156 0.296875 -1.046875 C 0.191406 -1.160156 0.113281 -1.289062 0.0625 -1.4375 C 0.0195312 -1.582031 0.00390625 -1.726562 0.015625 -1.875 C 0.015625 -1.914062 0.015625 -1.96875 0.015625 -2.03125 C 0.015625 -2.175781 0.0195312 -2.347656 0.03125 -2.546875 C 0.0507812 -2.753906 0.0820312 -2.941406 0.125 -3.109375 C 0.175781 -3.273438 0.25 -3.375 0.34375 -3.40625 C 0.632812 -3.476562 0.789062 -3.378906 0.8125 -3.109375 C 0.8125 -3.015625 0.8125 -2.925781 0.8125 -2.84375 C 0.800781 -2.789062 0.796875 -2.75 0.796875 -2.71875 C 0.785156 -2.59375 0.78125 -2.460938 0.78125 -2.328125 C 0.78125 -2.234375 0.773438 -2.132812 0.765625 -2.03125 C 0.753906 -1.59375 0.847656 -1.332031 1.046875 -1.25 C 1.253906 -1.164062 1.488281 -1.253906 1.75 -1.515625 C 2.007812 -1.773438 2.175781 -1.988281 2.25 -2.15625 C 2.332031 -2.332031 2.390625 -2.367188 2.421875 -2.265625 C 2.460938 -2.171875 2.4375 -2.023438 2.34375 -1.828125 Z M 0.75 -4.328125 C 0.71875 -4.296875 0.671875 -4.273438 0.609375 -4.265625 C 0.554688 -4.253906 0.507812 -4.257812 0.46875 -4.28125 C 0.4375 -4.3125 0.414062 -4.347656 0.40625 -4.390625 C 0.394531 -4.429688 0.390625 -4.484375 0.390625 -4.546875 C 0.390625 -4.554688 0.390625 -4.566406 0.390625 -4.578125 C 0.398438 -4.640625 0.414062 -4.695312 0.4375 -4.75 C 0.5 -4.894531 0.625 -4.957031 0.8125 -4.9375 C 0.875 -4.9375 0.925781 -4.910156 0.96875 -4.859375 C 1.007812 -4.816406 1.019531 -4.765625 1 -4.703125 C 0.945312 -4.554688 0.863281 -4.429688 0.75 -4.328125 Z M 0.75 -4.328125 "/></g></g></g><g fill="#c19b29" fill-opacity="1"><g transform="translate(62.208853, 31.549418)"><g><path d="M 3.265625 -2.109375 C 3.316406 -2.234375 3.375 -2.296875 3.4375 -2.296875 C 3.5 -2.296875 3.519531 -2.234375 3.5 -2.109375 C 3.394531 -1.796875 3.269531 -1.5 3.125 -1.21875 C 2.988281 -0.9375 2.800781 -0.6875 2.5625 -0.46875 C 2.382812 -0.28125 2.171875 -0.164062 1.921875 -0.125 C 1.578125 -0.0703125 1.296875 -0.109375 1.078125 -0.234375 C 0.859375 -0.367188 0.679688 -0.554688 0.546875 -0.796875 C 0.421875 -1.035156 0.328125 -1.300781 0.265625 -1.59375 C 0.203125 -1.882812 0.160156 -2.164062 0.140625 -2.4375 C 0.0859375 -2.945312 0.0507812 -3.617188 0.03125 -4.453125 C 0.0078125 -5.285156 0.0195312 -6.164062 0.0625 -7.09375 C 0.101562 -8.03125 0.191406 -8.894531 0.328125 -9.6875 C 0.472656 -10.488281 0.6875 -11.109375 0.96875 -11.546875 C 1.125 -11.765625 1.304688 -11.875 1.515625 -11.875 C 1.734375 -11.875 1.925781 -11.773438 2.09375 -11.578125 C 2.195312 -11.421875 2.273438 -11.253906 2.328125 -11.078125 C 2.390625 -10.910156 2.429688 -10.738281 2.453125 -10.5625 C 2.515625 -9.957031 2.507812 -9.3125 2.4375 -8.625 C 2.363281 -7.945312 2.242188 -7.222656 2.078125 -6.453125 C 1.910156 -5.679688 1.710938 -5 1.484375 -4.40625 C 1.265625 -3.820312 1.078125 -3.359375 0.921875 -3.015625 C 0.847656 -2.878906 0.820312 -2.671875 0.84375 -2.390625 C 0.863281 -2.078125 0.914062 -1.753906 1 -1.421875 C 1.09375 -1.097656 1.222656 -0.835938 1.390625 -0.640625 C 1.535156 -0.484375 1.703125 -0.429688 1.890625 -0.484375 C 2.078125 -0.546875 2.265625 -0.671875 2.453125 -0.859375 C 2.640625 -1.054688 2.800781 -1.269531 2.9375 -1.5 C 3.082031 -1.726562 3.191406 -1.929688 3.265625 -2.109375 Z M 0.859375 -6.734375 C 0.835938 -6.535156 0.816406 -6.234375 0.796875 -5.828125 C 0.785156 -5.429688 0.769531 -5.023438 0.75 -4.609375 C 0.738281 -4.140625 0.726562 -3.773438 0.71875 -3.515625 C 0.863281 -3.847656 1.035156 -4.332031 1.234375 -4.96875 C 1.429688 -5.601562 1.609375 -6.347656 1.765625 -7.203125 C 1.929688 -8.066406 2.035156 -9 2.078125 -10 C 2.054688 -10.582031 1.988281 -10.976562 1.875 -11.1875 C 1.757812 -11.394531 1.632812 -11.410156 1.5 -11.234375 C 1.363281 -11.066406 1.257812 -10.707031 1.1875 -10.15625 C 1.0625 -9.238281 0.96875 -8.320312 0.90625 -7.40625 C 0.882812 -7.1875 0.867188 -6.960938 0.859375 -6.734375 Z M 0.859375 -6.734375 "/></g></g></g><g fill="#c19b29" fill-opacity="1"><g transform="translate(65.427039, 31.549418)"><g><path d="M 2.34375 -1.828125 C 2.25 -1.640625 2.085938 -1.425781 1.859375 -1.1875 C 1.640625 -0.957031 1.382812 -0.8125 1.09375 -0.75 C 0.8125 -0.6875 0.546875 -0.785156 0.296875 -1.046875 C 0.191406 -1.160156 0.113281 -1.289062 0.0625 -1.4375 C 0.0195312 -1.582031 0.00390625 -1.726562 0.015625 -1.875 C 0.015625 -1.914062 0.015625 -1.96875 0.015625 -2.03125 C 0.015625 -2.175781 0.0195312 -2.347656 0.03125 -2.546875 C 0.0507812 -2.753906 0.0820312 -2.941406 0.125 -3.109375 C 0.175781 -3.273438 0.25 -3.375 0.34375 -3.40625 C 0.632812 -3.476562 0.789062 -3.378906 0.8125 -3.109375 C 0.8125 -3.015625 0.8125 -2.925781 0.8125 -2.84375 C 0.800781 -2.789062 0.796875 -2.75 0.796875 -2.71875 C 0.785156 -2.59375 0.78125 -2.460938 0.78125 -2.328125 C 0.78125 -2.234375 0.773438 -2.132812 0.765625 -2.03125 C 0.753906 -1.59375 0.847656 -1.332031 1.046875 -1.25 C 1.253906 -1.164062 1.488281 -1.253906 1.75 -1.515625 C 2.007812 -1.773438 2.175781 -1.988281 2.25 -2.15625 C 2.332031 -2.332031 2.390625 -2.367188 2.421875 -2.265625 C 2.460938 -2.171875 2.4375 -2.023438 2.34375 -1.828125 Z M 0.75 -4.328125 C 0.71875 -4.296875 0.671875 -4.273438 0.609375 -4.265625 C 0.554688 -4.253906 0.507812 -4.257812 0.46875 -4.28125 C 0.4375 -4.3125 0.414062 -4.347656 0.40625 -4.390625 C 0.394531 -4.429688 0.390625 -4.484375 0.390625 -4.546875 C 0.390625 -4.554688 0.390625 -4.566406 0.390625 -4.578125 C 0.398438 -4.640625 0.414062 -4.695312 0.4375 -4.75 C 0.5 -4.894531 0.625 -4.957031 0.8125 -4.9375 C 0.875 -4.9375 0.925781 -4.910156 0.96875 -4.859375 C 1.007812 -4.816406 1.019531 -4.765625 1 -4.703125 C 0.945312 -4.554688 0.863281 -4.429688 0.75 -4.328125 Z M 0.75 -4.328125 "/></g></g></g><g fill="#c19b29" fill-opacity="1"><g transform="translate(67.649444, 31.549418)"><g><path d="M 5.125 -2.328125 C 5.039062 -2.078125 4.875 -1.785156 4.625 -1.453125 C 4.375 -1.128906 4.066406 -0.921875 3.703125 -0.828125 C 3.335938 -0.734375 3.019531 -0.742188 2.75 -0.859375 C 2.476562 -0.984375 2.332031 -1.300781 2.3125 -1.8125 C 2 -1.226562 1.703125 -0.851562 1.421875 -0.6875 C 1.148438 -0.519531 0.867188 -0.457031 0.578125 -0.5 C 0.234375 -0.550781 0.00390625 -0.679688 -0.109375 -0.890625 C -0.234375 -1.097656 -0.273438 -1.335938 -0.234375 -1.609375 C -0.191406 -1.878906 -0.109375 -2.140625 0.015625 -2.390625 C 0.117188 -2.578125 0.257812 -2.75 0.4375 -2.90625 C 0.613281 -3.070312 0.796875 -3.203125 0.984375 -3.296875 C 1.222656 -3.410156 1.460938 -3.460938 1.703125 -3.453125 C 1.941406 -3.453125 2.203125 -3.375 2.484375 -3.21875 C 2.484375 -3.21875 2.484375 -3.222656 2.484375 -3.234375 C 2.484375 -3.265625 2.488281 -3.300781 2.5 -3.34375 C 2.519531 -3.382812 2.546875 -3.414062 2.578125 -3.4375 C 2.671875 -3.5 2.773438 -3.53125 2.890625 -3.53125 C 3.015625 -3.53125 3.113281 -3.472656 3.1875 -3.359375 C 3.195312 -3.191406 3.179688 -2.984375 3.140625 -2.734375 C 3.035156 -2.191406 3.03125 -1.800781 3.125 -1.5625 C 3.226562 -1.332031 3.40625 -1.222656 3.65625 -1.234375 C 3.914062 -1.253906 4.242188 -1.503906 4.640625 -1.984375 C 5.046875 -2.460938 5.207031 -2.578125 5.125 -2.328125 Z M 0.671875 -1.046875 C 0.804688 -0.953125 0.960938 -0.96875 1.140625 -1.09375 C 1.316406 -1.21875 1.488281 -1.394531 1.65625 -1.625 C 1.820312 -1.863281 1.960938 -2.097656 2.078125 -2.328125 C 2.191406 -2.554688 2.253906 -2.726562 2.265625 -2.84375 C 1.929688 -3.019531 1.640625 -3.046875 1.390625 -2.921875 C 1.148438 -2.804688 0.957031 -2.613281 0.8125 -2.34375 C 0.675781 -2.082031 0.59375 -1.820312 0.5625 -1.5625 C 0.539062 -1.3125 0.578125 -1.140625 0.671875 -1.046875 Z M 0.671875 -1.046875 "/></g></g></g><g fill="#c19b29" fill-opacity="1"><g transform="translate(72.447299, 31.549418)"><g><path d="M 3.734375 -1.734375 C 3.972656 -2.109375 4.113281 -2.34375 4.15625 -2.4375 C 4.195312 -2.539062 4.226562 -2.535156 4.25 -2.421875 C 4.28125 -2.316406 4.207031 -2.070312 4.03125 -1.6875 C 3.851562 -1.3125 3.632812 -1.019531 3.375 -0.8125 C 3.125 -0.601562 2.882812 -0.523438 2.65625 -0.578125 C 2.4375 -0.640625 2.273438 -0.796875 2.171875 -1.046875 C 2.078125 -1.304688 2.050781 -1.632812 2.09375 -2.03125 C 2.09375 -2.03125 2.09375 -2.046875 2.09375 -2.078125 C 2.101562 -2.140625 2.113281 -2.234375 2.125 -2.359375 C 2.144531 -2.492188 2.160156 -2.628906 2.171875 -2.765625 C 2.179688 -2.910156 2.175781 -3.023438 2.15625 -3.109375 C 2.132812 -3.203125 2.09375 -3.238281 2.03125 -3.21875 C 1.875 -3.125 1.71875 -2.945312 1.5625 -2.6875 C 1.40625 -2.4375 1.265625 -2.171875 1.140625 -1.890625 C 1.023438 -1.617188 0.941406 -1.394531 0.890625 -1.21875 C 0.867188 -1.164062 0.847656 -1.109375 0.828125 -1.046875 C 0.796875 -0.972656 0.765625 -0.894531 0.734375 -0.8125 C 0.648438 -0.582031 0.5 -0.492188 0.28125 -0.546875 C 0.15625 -0.578125 0.0820312 -0.65625 0.0625 -0.78125 C 0.0625 -0.863281 0.0625 -0.953125 0.0625 -1.046875 C 0.0625 -1.097656 0.0546875 -1.144531 0.046875 -1.1875 C 0.0351562 -1.851562 0.0195312 -2.53125 0 -3.21875 C 0.0078125 -3.289062 0.046875 -3.34375 0.109375 -3.375 C 0.171875 -3.40625 0.242188 -3.421875 0.328125 -3.421875 C 0.398438 -3.421875 0.460938 -3.398438 0.515625 -3.359375 C 0.578125 -3.328125 0.613281 -3.253906 0.625 -3.140625 C 0.632812 -3.097656 0.640625 -3.054688 0.640625 -3.015625 C 0.640625 -2.992188 0.640625 -2.976562 0.640625 -2.96875 C 0.660156 -2.875 0.671875 -2.789062 0.671875 -2.71875 C 0.671875 -2.625 0.675781 -2.554688 0.6875 -2.515625 C 0.695312 -2.484375 0.722656 -2.484375 0.765625 -2.515625 C 0.816406 -2.554688 0.890625 -2.65625 0.984375 -2.8125 C 1.160156 -3.070312 1.375 -3.296875 1.625 -3.484375 C 1.851562 -3.648438 2.109375 -3.71875 2.390625 -3.6875 C 2.628906 -3.664062 2.789062 -3.539062 2.875 -3.3125 C 2.90625 -3.195312 2.921875 -3.082031 2.921875 -2.96875 C 2.921875 -2.851562 2.910156 -2.734375 2.890625 -2.609375 C 2.890625 -2.492188 2.882812 -2.375 2.875 -2.25 C 2.863281 -2.207031 2.851562 -2.164062 2.84375 -2.125 C 2.800781 -1.695312 2.8125 -1.410156 2.875 -1.265625 C 2.945312 -1.117188 3.050781 -1.066406 3.1875 -1.109375 C 3.320312 -1.160156 3.503906 -1.367188 3.734375 -1.734375 Z M 3.734375 -1.734375 "/></g></g></g><g fill="#c19b29" fill-opacity="1"><g transform="translate(76.430424, 31.549418)"><g><path d="M 5.125 -2.328125 C 5.039062 -2.078125 4.875 -1.785156 4.625 -1.453125 C 4.375 -1.128906 4.066406 -0.921875 3.703125 -0.828125 C 3.335938 -0.734375 3.019531 -0.742188 2.75 -0.859375 C 2.476562 -0.984375 2.332031 -1.300781 2.3125 -1.8125 C 2 -1.226562 1.703125 -0.851562 1.421875 -0.6875 C 1.148438 -0.519531 0.867188 -0.457031 0.578125 -0.5 C 0.234375 -0.550781 0.00390625 -0.679688 -0.109375 -0.890625 C -0.234375 -1.097656 -0.273438 -1.335938 -0.234375 -1.609375 C -0.191406 -1.878906 -0.109375 -2.140625 0.015625 -2.390625 C 0.117188 -2.578125 0.257812 -2.75 0.4375 -2.90625 C 0.613281 -3.070312 0.796875 -3.203125 0.984375 -3.296875 C 1.222656 -3.410156 1.460938 -3.460938 1.703125 -3.453125 C 1.941406 -3.453125 2.203125 -3.375 2.484375 -3.21875 C 2.484375 -3.21875 2.484375 -3.222656 2.484375 -3.234375 C 2.484375 -3.265625 2.488281 -3.300781 2.5 -3.34375 C 2.519531 -3.382812 2.546875 -3.414062 2.578125 -3.4375 C 2.671875 -3.5 2.773438 -3.53125 2.890625 -3.53125 C 3.015625 -3.53125 3.113281 -3.472656 3.1875 -3.359375 C 3.195312 -3.191406 3.179688 -2.984375 3.140625 -2.734375 C 3.035156 -2.191406 3.03125 -1.800781 3.125 -1.5625 C 3.226562 -1.332031 3.40625 -1.222656 3.65625 -1.234375 C 3.914062 -1.253906 4.242188 -1.503906 4.640625 -1.984375 C 5.046875 -2.460938 5.207031 -2.578125 5.125 -2.328125 Z M 0.671875 -1.046875 C 0.804688 -0.953125 0.960938 -0.96875 1.140625 -1.09375 C 1.316406 -1.21875 1.488281 -1.394531 1.65625 -1.625 C 1.820312 -1.863281 1.960938 -2.097656 2.078125 -2.328125 C 2.191406 -2.554688 2.253906 -2.726562 2.265625 -2.84375 C 1.929688 -3.019531 1.640625 -3.046875 1.390625 -2.921875 C 1.148438 -2.804688 0.957031 -2.613281 0.8125 -2.34375 C 0.675781 -2.082031 0.59375 -1.820312 0.5625 -1.5625 C 0.539062 -1.3125 0.578125 -1.140625 0.671875 -1.046875 Z M 0.671875 -1.046875 "/></g></g></g><g fill="#c19b29" fill-opacity="1"><g transform="translate(81.228279, 31.549418)"><g/></g></g><g fill="#c19b29" fill-opacity="1"><g transform="translate(83.527629, 31.549418)"><g><path d="M 17.578125 -12.84375 C 18.023438 -12.488281 18.382812 -12.082031 18.65625 -11.625 C 18.9375 -11.164062 19.125 -10.648438 19.21875 -10.078125 C 19.269531 -9.785156 19.28125 -9.492188 19.25 -9.203125 C 19.21875 -8.921875 19.164062 -8.640625 19.09375 -8.359375 C 18.976562 -7.898438 18.8125 -7.460938 18.59375 -7.046875 C 18.382812 -6.628906 18.132812 -6.226562 17.84375 -5.84375 C 17.457031 -5.351562 17.023438 -4.914062 16.546875 -4.53125 C 16.078125 -4.144531 15.570312 -3.796875 15.03125 -3.484375 C 13.90625 -2.828125 12.71875 -2.289062 11.46875 -1.875 C 11.382812 -1.832031 11.296875 -1.796875 11.203125 -1.765625 C 11.066406 -1.722656 10.972656 -1.6875 10.921875 -1.65625 C 10.867188 -1.632812 10.835938 -1.59375 10.828125 -1.53125 C 10.816406 -1.46875 10.8125 -1.375 10.8125 -1.25 C 10.8125 0.320312 10.804688 1.890625 10.796875 3.453125 C 10.796875 3.660156 10.796875 3.863281 10.796875 4.0625 C 10.796875 4.070312 10.796875 4.082031 10.796875 4.09375 C 10.796875 4.207031 10.796875 4.316406 10.796875 4.421875 C 10.796875 4.535156 10.773438 4.644531 10.734375 4.75 C 10.691406 4.925781 10.582031 5.015625 10.40625 5.015625 C 10.257812 5.003906 10.160156 4.925781 10.109375 4.78125 C 10.046875 4.539062 10.019531 4.296875 10.03125 4.046875 C 10.03125 3.804688 10.03125 3.566406 10.03125 3.328125 C 10.03125 1.984375 10.03125 0.644531 10.03125 -0.6875 C 10.03125 -0.738281 10.03125 -0.789062 10.03125 -0.84375 C 10.050781 -1 10.035156 -1.171875 9.984375 -1.359375 C 9.890625 -1.347656 9.804688 -1.332031 9.734375 -1.3125 C 9.617188 -1.28125 9.503906 -1.273438 9.390625 -1.296875 C 9.347656 -1.296875 9.304688 -1.300781 9.265625 -1.3125 C 9.234375 -1.332031 9.21875 -1.367188 9.21875 -1.421875 C 9.21875 -1.515625 9.257812 -1.570312 9.34375 -1.59375 C 9.5 -1.664062 9.660156 -1.722656 9.828125 -1.765625 C 9.972656 -1.816406 10.039062 -1.921875 10.03125 -2.078125 C 10.03125 -2.171875 10.03125 -2.265625 10.03125 -2.359375 C 10.03125 -2.410156 10.03125 -2.46875 10.03125 -2.53125 C 10.03125 -3.332031 10.03125 -4.132812 10.03125 -4.9375 C 10.039062 -6.707031 10.046875 -8.488281 10.046875 -10.28125 C 10.046875 -10.300781 10.046875 -10.320312 10.046875 -10.34375 C 10.046875 -10.476562 10.046875 -10.609375 10.046875 -10.734375 C 10.066406 -10.960938 10.195312 -11.078125 10.4375 -11.078125 C 10.65625 -11.078125 10.773438 -10.960938 10.796875 -10.734375 C 10.804688 -10.617188 10.804688 -10.503906 10.796875 -10.390625 C 10.796875 -10.347656 10.796875 -10.304688 10.796875 -10.265625 C 10.796875 -9.710938 10.796875 -9.160156 10.796875 -8.609375 C 10.804688 -6.671875 10.8125 -4.738281 10.8125 -2.8125 C 10.8125 -2.757812 10.8125 -2.710938 10.8125 -2.671875 C 10.800781 -2.503906 10.8125 -2.34375 10.84375 -2.1875 C 10.882812 -2.15625 10.921875 -2.144531 10.953125 -2.15625 C 10.992188 -2.164062 11.03125 -2.175781 11.0625 -2.1875 C 11.988281 -2.53125 12.878906 -2.941406 13.734375 -3.421875 C 14.585938 -3.898438 15.390625 -4.460938 16.140625 -5.109375 C 17.097656 -5.953125 17.773438 -6.988281 18.171875 -8.21875 C 18.378906 -8.894531 18.4375 -9.519531 18.34375 -10.09375 C 18.257812 -10.675781 18.054688 -11.195312 17.734375 -11.65625 C 17.410156 -12.125 17.003906 -12.519531 16.515625 -12.84375 C 15.660156 -13.40625 14.648438 -13.75 13.484375 -13.875 C 12.316406 -14.007812 11.085938 -13.96875 9.796875 -13.75 C 8.515625 -13.53125 7.273438 -13.175781 6.078125 -12.6875 C 4.878906 -12.195312 3.832031 -11.601562 2.9375 -10.90625 C 2.039062 -10.21875 1.390625 -9.472656 0.984375 -8.671875 C 0.890625 -8.515625 0.820312 -8.347656 0.78125 -8.171875 C 0.75 -8.003906 0.753906 -7.820312 0.796875 -7.625 C 0.828125 -7.519531 0.8125 -7.441406 0.75 -7.390625 C 0.695312 -7.335938 0.613281 -7.316406 0.5 -7.328125 C 0.289062 -7.367188 0.144531 -7.484375 0.0625 -7.671875 C 0 -7.835938 -0.0078125 -8.007812 0.03125 -8.1875 C 0.101562 -8.53125 0.238281 -8.84375 0.4375 -9.125 C 1.082031 -10.0625 1.976562 -10.890625 3.125 -11.609375 C 4.269531 -12.335938 5.535156 -12.9375 6.921875 -13.40625 C 8.316406 -13.875 9.710938 -14.175781 11.109375 -14.3125 C 12.503906 -14.445312 13.765625 -14.382812 14.890625 -14.125 C 15.390625 -14.019531 15.863281 -13.859375 16.3125 -13.640625 C 16.757812 -13.429688 17.179688 -13.164062 17.578125 -12.84375 Z M 17.578125 -12.84375 "/></g></g></g><g fill="#c19b29" fill-opacity="1"><g transform="translate(100.356332, 31.549418)"><g><path d="M 5.125 -2.328125 C 5.039062 -2.078125 4.875 -1.785156 4.625 -1.453125 C 4.375 -1.128906 4.066406 -0.921875 3.703125 -0.828125 C 3.335938 -0.734375 3.019531 -0.742188 2.75 -0.859375 C 2.476562 -0.984375 2.332031 -1.300781 2.3125 -1.8125 C 2 -1.226562 1.703125 -0.851562 1.421875 -0.6875 C 1.148438 -0.519531 0.867188 -0.457031 0.578125 -0.5 C 0.234375 -0.550781 0.00390625 -0.679688 -0.109375 -0.890625 C -0.234375 -1.097656 -0.273438 -1.335938 -0.234375 -1.609375 C -0.191406 -1.878906 -0.109375 -2.140625 0.015625 -2.390625 C 0.117188 -2.578125 0.257812 -2.75 0.4375 -2.90625 C 0.613281 -3.070312 0.796875 -3.203125 0.984375 -3.296875 C 1.222656 -3.410156 1.460938 -3.460938 1.703125 -3.453125 C 1.941406 -3.453125 2.203125 -3.375 2.484375 -3.21875 C 2.484375 -3.21875 2.484375 -3.222656 2.484375 -3.234375 C 2.484375 -3.265625 2.488281 -3.300781 2.5 -3.34375 C 2.519531 -3.382812 2.546875 -3.414062 2.578125 -3.4375 C 2.671875 -3.5 2.773438 -3.53125 2.890625 -3.53125 C 3.015625 -3.53125 3.113281 -3.472656 3.1875 -3.359375 C 3.195312 -3.191406 3.179688 -2.984375 3.140625 -2.734375 C 3.035156 -2.191406 3.03125 -1.800781 3.125 -1.5625 C 3.226562 -1.332031 3.40625 -1.222656 3.65625 -1.234375 C 3.914062 -1.253906 4.242188 -1.503906 4.640625 -1.984375 C 5.046875 -2.460938 5.207031 -2.578125 5.125 -2.328125 Z M 0.671875 -1.046875 C 0.804688 -0.953125 0.960938 -0.96875 1.140625 -1.09375 C 1.316406 -1.21875 1.488281 -1.394531 1.65625 -1.625 C 1.820312 -1.863281 1.960938 -2.097656 2.078125 -2.328125 C 2.191406 -2.554688 2.253906 -2.726562 2.265625 -2.84375 C 1.929688 -3.019531 1.640625 -3.046875 1.390625 -2.921875 C 1.148438 -2.804688 0.957031 -2.613281 0.8125 -2.34375 C 0.675781 -2.082031 0.59375 -1.820312 0.5625 -1.5625 C 0.539062 -1.3125 0.578125 -1.140625 0.671875 -1.046875 Z M 0.671875 -1.046875 "/></g></g></g><g fill="#c19b29" fill-opacity="1"><g transform="translate(105.154187, 31.549418)"><g><path d="M 2.890625 -2.171875 C 2.941406 -2.285156 2.976562 -2.335938 3 -2.328125 C 3.019531 -2.316406 3.023438 -2.269531 3.015625 -2.1875 C 3.003906 -2.101562 2.988281 -2.003906 2.96875 -1.890625 C 2.925781 -1.722656 2.851562 -1.53125 2.75 -1.3125 C 2.65625 -1.09375 2.550781 -0.894531 2.4375 -0.71875 C 2.257812 -0.476562 2.039062 -0.296875 1.78125 -0.171875 C 1.53125 -0.046875 1.300781 -0.015625 1.09375 -0.078125 C 0.882812 -0.140625 0.757812 -0.335938 0.71875 -0.671875 C 0.71875 -0.941406 0.742188 -1.242188 0.796875 -1.578125 C 0.816406 -1.710938 0.835938 -1.847656 0.859375 -1.984375 C 0.859375 -2.035156 0.84375 -2.070312 0.8125 -2.09375 C 0.789062 -2.125 0.757812 -2.132812 0.71875 -2.125 C 0.695312 -2.125 0.671875 -2.125 0.640625 -2.125 C 0.472656 -2.09375 0.300781 -2.097656 0.125 -2.140625 C -0.0820312 -2.191406 -0.203125 -2.289062 -0.234375 -2.4375 C -0.265625 -2.582031 -0.257812 -2.769531 -0.21875 -3 C -0.195312 -3.164062 -0.132812 -3.289062 -0.03125 -3.375 C 0.0703125 -3.457031 0.191406 -3.492188 0.328125 -3.484375 C 0.515625 -3.460938 0.601562 -3.382812 0.59375 -3.25 C 0.59375 -3.125 0.5625 -2.988281 0.5 -2.84375 C 0.4375 -2.71875 0.398438 -2.613281 0.390625 -2.53125 C 0.390625 -2.445312 0.460938 -2.414062 0.609375 -2.4375 C 0.648438 -2.445312 0.6875 -2.457031 0.71875 -2.46875 C 0.78125 -2.488281 0.84375 -2.507812 0.90625 -2.53125 C 0.976562 -2.550781 1.070312 -2.554688 1.1875 -2.546875 C 1.3125 -2.535156 1.394531 -2.472656 1.4375 -2.359375 C 1.488281 -2.242188 1.507812 -2.097656 1.5 -1.921875 C 1.5 -1.742188 1.484375 -1.566406 1.453125 -1.390625 C 1.421875 -1.160156 1.40625 -0.960938 1.40625 -0.796875 C 1.40625 -0.640625 1.453125 -0.550781 1.546875 -0.53125 C 1.671875 -0.488281 1.851562 -0.597656 2.09375 -0.859375 C 2.34375 -1.117188 2.609375 -1.554688 2.890625 -2.171875 Z M 2.890625 -2.171875 "/></g></g></g><g fill="#c19b29" fill-opacity="1"><g transform="translate(107.92427, 31.549418)"><g><path d="M 7.09375 -2.203125 C 7.125 -2.253906 7.164062 -2.28125 7.21875 -2.28125 C 7.28125 -2.289062 7.328125 -2.257812 7.359375 -2.1875 C 7.378906 -2.164062 7.363281 -2.113281 7.3125 -2.03125 C 7.269531 -1.945312 7.210938 -1.851562 7.140625 -1.75 C 7.078125 -1.644531 7.007812 -1.550781 6.9375 -1.46875 C 6.875 -1.382812 6.828125 -1.328125 6.796875 -1.296875 C 6.503906 -0.960938 6.207031 -0.71875 5.90625 -0.5625 C 5.601562 -0.40625 5.273438 -0.375 4.921875 -0.46875 C 4.566406 -0.5625 4.171875 -0.8125 3.734375 -1.21875 C 3.671875 -1.289062 3.601562 -1.363281 3.53125 -1.4375 C 3.507812 -1.457031 3.492188 -1.476562 3.484375 -1.5 C 3.410156 -1.582031 3.332031 -1.59375 3.25 -1.53125 C 3.15625 -1.457031 3.0625 -1.390625 2.96875 -1.328125 C 2.882812 -1.265625 2.800781 -1.207031 2.71875 -1.15625 C 2.4375 -0.96875 2.140625 -0.804688 1.828125 -0.671875 C 1.492188 -0.523438 1.144531 -0.46875 0.78125 -0.5 C 0.21875 -0.570312 -0.0703125 -0.890625 -0.09375 -1.453125 C -0.101562 -1.847656 -0.0195312 -2.203125 0.15625 -2.515625 C 0.332031 -2.828125 0.578125 -3.054688 0.890625 -3.203125 C 1.203125 -3.359375 1.566406 -3.390625 1.984375 -3.296875 C 2.023438 -3.296875 2.082031 -3.285156 2.15625 -3.265625 C 2.207031 -3.242188 2.265625 -3.226562 2.328125 -3.21875 C 2.285156 -3.3125 2.25 -3.394531 2.21875 -3.46875 C 2.15625 -3.59375 2.101562 -3.703125 2.0625 -3.796875 C 1.789062 -4.359375 1.566406 -5.003906 1.390625 -5.734375 C 1.222656 -6.460938 1.140625 -7.207031 1.140625 -7.96875 C 1.140625 -8.726562 1.265625 -9.4375 1.515625 -10.09375 C 1.773438 -10.75 2.195312 -11.289062 2.78125 -11.71875 C 3.144531 -11.96875 3.523438 -12.101562 3.921875 -12.125 C 4.316406 -12.144531 4.691406 -12.054688 5.046875 -11.859375 C 5.398438 -11.671875 5.6875 -11.382812 5.90625 -11 C 6.1875 -10.46875 6.359375 -9.910156 6.421875 -9.328125 C 6.546875 -8.378906 6.523438 -7.488281 6.359375 -6.65625 C 6.203125 -5.832031 5.921875 -5.054688 5.515625 -4.328125 C 5.117188 -3.597656 4.609375 -2.882812 3.984375 -2.1875 C 3.921875 -2.125 3.882812 -2.070312 3.875 -2.03125 C 3.875 -2 3.90625 -1.945312 3.96875 -1.875 C 4.09375 -1.707031 4.226562 -1.546875 4.375 -1.390625 C 4.53125 -1.234375 4.703125 -1.097656 4.890625 -0.984375 C 5.148438 -0.878906 5.425781 -0.878906 5.71875 -0.984375 C 6.007812 -1.097656 6.28125 -1.269531 6.53125 -1.5 C 6.789062 -1.726562 6.976562 -1.960938 7.09375 -2.203125 Z M 2.65625 -1.8125 C 2.738281 -1.875 2.742188 -1.945312 2.671875 -2.03125 C 2.640625 -2.082031 2.601562 -2.132812 2.5625 -2.1875 C 2.445312 -2.320312 2.320312 -2.457031 2.1875 -2.59375 C 2.050781 -2.738281 1.90625 -2.84375 1.75 -2.90625 C 1.601562 -2.976562 1.453125 -2.988281 1.296875 -2.9375 C 1.085938 -2.832031 0.914062 -2.65625 0.78125 -2.40625 C 0.644531 -2.15625 0.5625 -1.894531 0.53125 -1.625 C 0.507812 -1.363281 0.5625 -1.160156 0.6875 -1.015625 C 0.820312 -0.878906 1.039062 -0.867188 1.34375 -0.984375 C 1.820312 -1.191406 2.257812 -1.46875 2.65625 -1.8125 Z M 3.671875 -2.796875 C 4.304688 -3.546875 4.78125 -4.28125 5.09375 -5 C 5.40625 -5.726562 5.617188 -6.582031 5.734375 -7.5625 C 5.765625 -7.800781 5.773438 -8.113281 5.765625 -8.5 C 5.765625 -8.882812 5.734375 -9.285156 5.671875 -9.703125 C 5.609375 -10.128906 5.488281 -10.515625 5.3125 -10.859375 C 5.144531 -11.203125 4.90625 -11.445312 4.59375 -11.59375 C 4.28125 -11.75 3.882812 -11.75 3.40625 -11.59375 C 2.875 -11.289062 2.476562 -10.878906 2.21875 -10.359375 C 1.96875 -9.847656 1.820312 -9.273438 1.78125 -8.640625 C 1.75 -8.015625 1.789062 -7.375 1.90625 -6.71875 C 2.03125 -6.0625 2.195312 -5.4375 2.40625 -4.84375 C 2.625 -4.25 2.851562 -3.734375 3.09375 -3.296875 C 3.125 -3.242188 3.148438 -3.191406 3.171875 -3.140625 C 3.242188 -2.960938 3.351562 -2.800781 3.5 -2.65625 C 3.519531 -2.675781 3.539062 -2.691406 3.5625 -2.703125 C 3.59375 -2.722656 3.628906 -2.753906 3.671875 -2.796875 Z M 3.671875 -2.796875 "/></g></g></g><g fill="#c19b29" fill-opacity="1"><g transform="translate(114.985264, 31.549418)"><g><path d="M 3.46875 -2.46875 C 3.519531 -2.519531 3.546875 -2.46875 3.546875 -2.3125 C 3.546875 -2.15625 3.40625 -1.9375 3.125 -1.65625 C 2.84375 -1.375 2.546875 -1.242188 2.234375 -1.265625 C 2.171875 -1.265625 2.113281 -1.253906 2.0625 -1.234375 C 2.019531 -1.222656 1.984375 -1.1875 1.953125 -1.125 C 1.921875 -1.070312 1.878906 -1.023438 1.828125 -0.984375 C 1.828125 -0.984375 1.828125 -0.976562 1.828125 -0.96875 C 1.640625 -0.769531 1.414062 -0.640625 1.15625 -0.578125 C 0.90625 -0.515625 0.664062 -0.535156 0.4375 -0.640625 C 0.21875 -0.742188 0.0546875 -0.9375 -0.046875 -1.21875 C -0.117188 -1.476562 -0.125 -1.738281 -0.0625 -2 C -0.0078125 -2.21875 0.0703125 -2.429688 0.1875 -2.640625 C 0.320312 -2.898438 0.5 -3.082031 0.71875 -3.1875 C 0.945312 -3.300781 1.203125 -3.363281 1.484375 -3.375 C 1.898438 -3.394531 2.160156 -3.203125 2.265625 -2.796875 C 2.335938 -2.554688 2.359375 -2.3125 2.328125 -2.0625 C 2.316406 -2.007812 2.304688 -1.953125 2.296875 -1.890625 C 2.273438 -1.859375 2.257812 -1.820312 2.25 -1.78125 C 2.238281 -1.644531 2.296875 -1.582031 2.421875 -1.59375 C 2.773438 -1.65625 3.125 -1.945312 3.46875 -2.46875 Z M 1.015625 -0.9375 C 1.222656 -1.03125 1.375 -1.195312 1.46875 -1.4375 C 1.101562 -1.664062 0.863281 -1.992188 0.75 -2.421875 C 0.632812 -2.222656 0.5625 -1.988281 0.53125 -1.71875 C 0.507812 -1.457031 0.535156 -1.238281 0.609375 -1.0625 C 0.691406 -0.882812 0.828125 -0.84375 1.015625 -0.9375 Z M 1.625 -1.90625 C 1.675781 -1.988281 1.707031 -2.09375 1.71875 -2.21875 C 1.726562 -2.34375 1.722656 -2.460938 1.703125 -2.578125 C 1.679688 -2.703125 1.648438 -2.800781 1.609375 -2.875 C 1.566406 -2.945312 1.523438 -2.96875 1.484375 -2.9375 C 1.398438 -2.863281 1.351562 -2.757812 1.34375 -2.625 C 1.332031 -2.488281 1.351562 -2.351562 1.40625 -2.21875 C 1.457031 -2.082031 1.53125 -1.976562 1.625 -1.90625 Z M 1.625 -1.90625 "/></g></g></g><g clip-path="url(#5a0ce4a443)"><path stroke-linecap="butt" transform="matrix(0, -0.740132, 0.740132, 0, 44.340476, 39.088198)" fill="none" stroke-linejoin="miter" d="M -0.00222293 0.500535 L 55.641391 0.500535 " stroke="#fafaff" stroke-width="1" stroke-opacity="1" stroke-miterlimit="4"/></g></svg>